<svg width="263" height="370" viewBox="0 0 263 370" fill="none" xmlns="http://www.w3.org/2000/svg">
<rect y="370" width="370" height="263" transform="rotate(-90 0 370)" fill="#1B273D"/>
<path d="M163 200.552C163 206.258 160.729 211.731 156.687 215.767C152.645 219.802 147.163 222.069 141.447 222.069H136.474V227.034C136.474 228.351 135.95 229.614 135.017 230.546C134.084 231.477 132.819 232 131.5 232C130.181 232 128.916 231.477 127.983 230.546C127.05 229.614 126.526 228.351 126.526 227.034V222.069H121.553C115.837 222.069 110.355 219.802 106.313 215.767C102.271 211.731 100 206.258 100 200.552C100 199.235 100.524 197.972 101.457 197.041C102.39 196.109 103.655 195.586 104.974 195.586C106.293 195.586 107.558 196.109 108.491 197.041C109.423 197.972 109.947 199.235 109.947 200.552C109.958 203.621 111.184 206.562 113.359 208.732C115.533 210.903 118.478 212.127 121.553 212.138H141.447C144.525 212.138 147.477 210.917 149.654 208.744C151.83 206.572 153.053 203.625 153.053 200.552C153.053 197.479 151.83 194.532 149.654 192.359C147.477 190.186 144.525 188.966 141.447 188.966H123.211C117.494 188.966 112.012 186.699 107.971 182.663C103.929 178.628 101.658 173.155 101.658 167.448C101.658 161.742 103.929 156.269 107.971 152.233C112.012 148.198 117.494 145.931 123.211 145.931H126.526V140.966C126.526 139.649 127.05 138.386 127.983 137.454C128.916 136.523 130.181 136 131.5 136C132.819 136 134.084 136.523 135.017 137.454C135.95 138.386 136.474 139.649 136.474 140.966V145.931H138.132C143.848 145.931 149.33 148.198 153.372 152.233C157.413 156.269 159.684 161.742 159.684 167.448C159.684 168.765 159.16 170.028 158.227 170.959C157.295 171.891 156.03 172.414 154.711 172.414C153.391 172.414 152.126 171.891 151.194 170.959C150.261 170.028 149.737 168.765 149.737 167.448C149.726 164.379 148.5 161.438 146.326 159.268C144.152 157.097 141.206 155.873 138.132 155.862H123.211C120.133 155.862 117.181 157.083 115.004 159.256C112.828 161.428 111.605 164.375 111.605 167.448C111.605 170.521 112.828 173.468 115.004 175.641C117.181 177.814 120.133 179.034 123.211 179.034H141.447C147.163 179.034 152.645 181.301 156.687 185.337C160.729 189.372 163 194.845 163 200.552Z" fill="#E14817"/>
<path d="M176 149L176 234C176 237.314 173.314 240 170 240L102 240" stroke="#5A667B" stroke-width="6" stroke-linecap="round"/>
<path d="M167 155L175.226 144.946C175.626 144.457 176.374 144.457 176.774 144.946L185 155" stroke="#5A667B" stroke-width="6" stroke-linecap="round"/>
<path d="M87 220L87 135C87 131.686 89.6863 129 93 129L161 129" stroke="#5A667B" stroke-width="6" stroke-linecap="round"/>
<path d="M96 214L87.774 224.054C87.3739 224.543 86.6261 224.543 86.226 224.054L78 214" stroke="#5A667B" stroke-width="6" stroke-linecap="round"/>
</svg>
