<svg width="263" height="370" viewBox="0 0 263 370" fill="none" xmlns="http://www.w3.org/2000/svg">
<rect y="370" width="370" height="263" transform="rotate(-90 0 370)" fill="#1B273D"/>
<line x1="38.5" y1="172.5" x2="77.5" y2="172.5" stroke="#5A667B" stroke-width="6" stroke-linecap="round"/>
<line x1="87.5" y1="172.5" x2="126.5" y2="172.5" stroke="#5A667B" stroke-width="6" stroke-linecap="round"/>
<line x1="136.5" y1="172.5" x2="175.5" y2="172.5" stroke="#5A667B" stroke-width="6" stroke-linecap="round"/>
<line x1="185.5" y1="172.5" x2="224.5" y2="172.5" stroke="#5A667B" stroke-width="6" stroke-linecap="round"/>
<rect x="62.5" y="160.5" width="39" height="24" rx="3" stroke="#5A667B" stroke-width="6"/>
<rect x="111.5" y="160.5" width="39" height="24" rx="3" stroke="#5A667B" stroke-width="6"/>
<rect x="160.5" y="160.5" width="39" height="24" rx="3" stroke="#5A667B" stroke-width="6"/>
<path d="M171.216 199.091H166.937L165.42 197.629C168.805 193.696 171.279 189.064 172.665 184.063C174.051 179.063 174.315 173.818 173.437 168.704C170.891 153.645 158.324 141.62 143.158 139.779C137.826 139.104 132.41 139.658 127.325 141.399C122.24 143.139 117.621 146.02 113.82 149.82C110.02 153.621 107.139 158.24 105.399 163.325C103.658 168.41 103.104 173.826 103.779 179.158C105.62 194.324 117.645 206.891 132.704 209.437C137.818 210.315 143.063 210.051 148.063 208.665C153.064 207.279 157.696 204.805 161.629 201.42L163.091 202.937V207.216L186.112 230.237C188.333 232.458 191.962 232.458 194.183 230.237C196.404 228.016 196.404 224.387 194.183 222.166L171.216 199.091ZM138.716 199.091C125.229 199.091 114.341 188.204 114.341 174.716C114.341 161.229 125.229 150.341 138.716 150.341C152.204 150.341 163.091 161.229 163.091 174.716C163.091 188.204 152.204 199.091 138.716 199.091Z" fill="#E14817"/>
</svg>
