<svg width="112" height="112" viewBox="0 0 112 112" fill="none" xmlns="http://www.w3.org/2000/svg">
<g filter="url(#filter0_dd_737_1113)">
<rect x="16" y="10" width="80" height="80" rx="16" fill="#1E9DEA" shape-rendering="crispEdges"/>
<g clip-path="url(#clip0_737_1113)">
<g clip-path="url(#clip1_737_1113)">
<path d="M69 39.0121C67.8683 39.8278 66.6152 40.4516 65.2891 40.8596C64.5773 40.0234 63.6314 39.4308 62.5792 39.1618C61.527 38.8928 60.4194 38.9605 59.4061 39.3556C58.3928 39.7508 57.5227 40.4544 56.9135 41.3712C56.3043 42.2881 55.9855 43.374 56 44.482V45.6895C53.9231 45.7445 51.8651 45.2739 50.0094 44.3196C48.1536 43.3652 46.5577 41.9567 45.3636 40.2196C45.3636 40.2196 40.6364 51.087 51.2727 55.9169C48.8388 57.6049 45.9394 58.4513 43 58.3319C53.6364 64.3693 66.6364 58.3319 66.6364 44.4458C66.6353 44.1095 66.6036 43.774 66.5418 43.4436C67.748 42.2283 68.5992 40.6938 69 39.0121Z" fill="white"/>
</g>
</g>
</g>
<defs>
<filter id="filter0_dd_737_1113" x="0" y="0" width="112" height="112" filterUnits="userSpaceOnUse" color-interpolation-filters="sRGB">
<feFlood flood-opacity="0" result="BackgroundImageFix"/>
<feColorMatrix in="SourceAlpha" type="matrix" values="0 0 0 0 0 0 0 0 0 0 0 0 0 0 0 0 0 0 127 0" result="hardAlpha"/>
<feOffset dy="6"/>
<feGaussianBlur stdDeviation="8"/>
<feComposite in2="hardAlpha" operator="out"/>
<feColorMatrix type="matrix" values="0 0 0 0 0.0117647 0 0 0 0 0 0 0 0 0 0.360784 0 0 0 0.12 0"/>
<feBlend mode="normal" in2="BackgroundImageFix" result="effect1_dropShadow_737_1113"/>
<feColorMatrix in="SourceAlpha" type="matrix" values="0 0 0 0 0 0 0 0 0 0 0 0 0 0 0 0 0 0 127 0" result="hardAlpha"/>
<feOffset dy="1"/>
<feGaussianBlur stdDeviation="2.5"/>
<feComposite in2="hardAlpha" operator="out"/>
<feColorMatrix type="matrix" values="0 0 0 0 0.0117647 0 0 0 0 0 0 0 0 0 0.360784 0 0 0 0.09 0"/>
<feBlend mode="normal" in2="effect1_dropShadow_737_1113" result="effect2_dropShadow_737_1113"/>
<feBlend mode="normal" in="SourceGraphic" in2="effect2_dropShadow_737_1113" result="shape"/>
</filter>
<clipPath id="clip0_737_1113">
<rect width="28" height="28" fill="white" transform="translate(42 36)"/>
</clipPath>
<clipPath id="clip1_737_1113">
<rect width="28" height="28" fill="white" transform="translate(42 36)"/>
</clipPath>
</defs>
</svg>
