<svg width="112" height="112" viewBox="0 0 112 112" fill="none" xmlns="http://www.w3.org/2000/svg">
<g filter="url(#filter0_dd_737_1093)">
<rect x="16" y="10" width="80" height="80" rx="16" fill="#989898" shape-rendering="crispEdges"/>
<g clip-path="url(#clip0_737_1093)">
<g clip-path="url(#clip1_737_1093)">
<path d="M55.9999 61.6666C62.4432 61.6666 67.6666 56.4432 67.6666 49.9999C67.6666 43.5566 62.4432 38.3333 55.9999 38.3333C49.5566 38.3333 44.3333 43.5566 44.3333 49.9999C44.3333 56.4432 49.5566 61.6666 55.9999 61.6666Z" stroke="white" stroke-width="2.33333" stroke-linecap="round" stroke-linejoin="round"/>
<path d="M44.3333 50H67.6666" stroke="white" stroke-width="2.33333" stroke-linecap="round" stroke-linejoin="round"/>
<path d="M55.9999 38.3333C58.9181 41.528 60.5765 45.674 60.6666 49.9999C60.5765 54.3259 58.9181 58.4718 55.9999 61.6666C53.0818 58.4718 51.4234 54.3259 51.3333 49.9999C51.4234 45.674 53.0818 41.528 55.9999 38.3333Z" stroke="white" stroke-width="2.33333" stroke-linecap="round" stroke-linejoin="round"/>
</g>
</g>
</g>
<defs>
<filter id="filter0_dd_737_1093" x="0" y="0" width="112" height="112" filterUnits="userSpaceOnUse" color-interpolation-filters="sRGB">
<feFlood flood-opacity="0" result="BackgroundImageFix"/>
<feColorMatrix in="SourceAlpha" type="matrix" values="0 0 0 0 0 0 0 0 0 0 0 0 0 0 0 0 0 0 127 0" result="hardAlpha"/>
<feOffset dy="6"/>
<feGaussianBlur stdDeviation="8"/>
<feComposite in2="hardAlpha" operator="out"/>
<feColorMatrix type="matrix" values="0 0 0 0 0.0117647 0 0 0 0 0 0 0 0 0 0.360784 0 0 0 0.12 0"/>
<feBlend mode="normal" in2="BackgroundImageFix" result="effect1_dropShadow_737_1093"/>
<feColorMatrix in="SourceAlpha" type="matrix" values="0 0 0 0 0 0 0 0 0 0 0 0 0 0 0 0 0 0 127 0" result="hardAlpha"/>
<feOffset dy="1"/>
<feGaussianBlur stdDeviation="2.5"/>
<feComposite in2="hardAlpha" operator="out"/>
<feColorMatrix type="matrix" values="0 0 0 0 0.0117647 0 0 0 0 0 0 0 0 0 0.360784 0 0 0 0.09 0"/>
<feBlend mode="normal" in2="effect1_dropShadow_737_1093" result="effect2_dropShadow_737_1093"/>
<feBlend mode="normal" in="SourceGraphic" in2="effect2_dropShadow_737_1093" result="shape"/>
</filter>
<clipPath id="clip0_737_1093">
<rect width="28" height="28" fill="white" transform="translate(42 36)"/>
</clipPath>
<clipPath id="clip1_737_1093">
<rect width="28" height="28" fill="white" transform="translate(42 36)"/>
</clipPath>
</defs>
</svg>
