<svg width="25" height="25" viewBox="0 0 25 25" fill="none" xmlns="http://www.w3.org/2000/svg">
<path d="M10.6875 13.5C11.117 14.0741 11.6649 14.5491 12.2941 14.8929C12.9232 15.2367 13.619 15.4411 14.3342 15.4923C15.0493 15.5435 15.7671 15.4403 16.4388 15.1897C17.1106 14.9392 17.7206 14.547 18.2275 14.04L21.2275 11.04C22.1383 10.097 22.6423 8.83394 22.6309 7.52296C22.6195 6.21198 22.0936 4.95791 21.1666 4.03087C20.2396 3.10383 18.9855 2.57799 17.6745 2.5666C16.3635 2.5552 15.1005 3.05918 14.1575 3.96997L12.4375 5.67997" stroke="#342A66" stroke-width="2" stroke-linecap="round" stroke-linejoin="round"/>
<path d="M14.6875 11.5C14.258 10.9259 13.7101 10.4508 13.0809 10.107C12.4517 9.76328 11.7559 9.55886 11.0408 9.50765C10.3257 9.45643 9.60787 9.55961 8.93611 9.8102C8.26435 10.0608 7.65434 10.4529 7.14746 10.96L4.14746 13.96C3.23667 14.903 2.73269 16.166 2.74409 17.477C2.75548 18.788 3.28132 20.042 4.20836 20.9691C5.1354 21.8961 6.38947 22.422 7.70045 22.4334C9.01143 22.4447 10.2744 21.9408 11.2175 21.03L12.9275 19.32" stroke="#342A66" stroke-width="2" stroke-linecap="round" stroke-linejoin="round"/>
</svg>
