<svg width="992" height="526" viewBox="0 0 992 526" fill="none" xmlns="http://www.w3.org/2000/svg">
<g clip-path="url(#clip0_864_1246)">
<g style="mix-blend-mode:lighten">
<path d="M503.341 183.451L420.145 135.422L503.324 87.3925L586.52 135.422L503.341 183.451ZM422.509 135.422L503.341 182.095L584.172 135.422L503.341 88.7482L422.509 135.422Z" fill="#8686F2"/>
</g>
<path d="M580.237 117.566V102.058L503.341 144.466L426.461 102.041V117.566L503.341 161.958L580.237 117.566Z" fill="url(#paint0_linear_864_1246)"/>
<path d="M503.341 146.433L426.461 102.041L503.341 57.6656L580.237 102.058L503.341 146.433Z" fill="url(#paint1_linear_864_1246)"/>
<path opacity="0.5" d="M503.341 145.16L427.568 101.413L426.461 102.041L503.341 146.433L580.237 102.058L579.129 101.413L503.341 145.16Z" fill="white"/>
<path d="M503.341 129.486L455.807 102.058L503.341 74.6122L550.874 102.058L503.341 129.486Z" fill="#0F054C"/>
<path opacity="0.5" d="M503.341 129.486L455.807 102.058L503.341 74.6122L550.874 102.058L503.341 129.486Z" fill="url(#paint2_linear_864_1246)"/>
<path opacity="0.5" d="M503.341 36.2219L550.874 63.6507V102.058L503.341 74.6123V36.2219Z" fill="url(#paint3_linear_864_1246)"/>
<path opacity="0.5" d="M503.341 74.6123L455.807 102.058V63.6507L503.341 36.2219V74.6123Z" fill="url(#paint4_linear_864_1246)"/>
<path opacity="0.5" d="M503.341 91.096L455.807 63.6507L503.341 36.2219L550.874 63.6507L503.341 91.096Z" fill="url(#paint5_linear_864_1246)"/>
<path opacity="0.5" d="M503.341 91.096V129.486L550.874 102.058V63.6506L503.341 91.096Z" fill="url(#paint6_linear_864_1246)"/>
<path opacity="0.5" d="M455.807 63.6506V102.058L503.341 129.486V91.096L455.807 63.6506Z" fill="url(#paint7_linear_864_1246)"/>
<g style="mix-blend-mode:lighten">
<path d="M293.748 280.618C291.383 280.618 289.069 280.006 287.035 278.832L209.825 234.258C208.618 233.564 207.89 232.307 207.89 230.902C207.89 229.497 208.618 228.24 209.825 227.546L349.531 146.879C349.763 146.747 350.06 146.747 350.308 146.879L433.835 195.107C435.042 195.802 435.769 197.058 435.769 198.463C435.769 199.869 435.042 201.125 433.835 201.82L300.444 278.832C298.41 280.006 296.095 280.618 293.731 280.618H293.748ZM349.928 148.434L210.602 228.868C209.874 229.282 209.444 230.042 209.444 230.885C209.444 231.729 209.874 232.489 210.602 232.902L287.812 277.476C291.4 279.543 296.079 279.543 299.667 277.476L433.058 200.464C433.785 200.051 434.215 199.29 434.215 198.447C434.215 197.604 433.785 196.843 433.058 196.43L349.911 148.434H349.928Z" fill="#42E8E0"/>
</g>
<path d="M443.854 173.432L435.753 177.665L354.475 130.743C353.119 129.966 350.738 130.049 349.168 130.958L208.998 211.889C207.659 211.145 201.542 208.202 201.542 208.202L204.501 215.939C204.617 216.286 204.881 216.601 205.328 216.865L290.921 266.283C292.276 267.06 294.657 266.978 296.228 266.068L439.671 183.253C440.316 182.873 440.713 182.426 440.878 181.98L443.821 173.465L443.854 173.432Z" fill="url(#paint8_linear_864_1246)"/>
<path d="M442.614 174.771L295.6 259.653C293.996 260.579 291.549 260.678 290.16 259.885L202.434 209.243C201.045 208.433 201.211 207.028 202.831 206.102L349.845 121.22C351.449 120.294 353.896 120.195 355.285 120.988L443.011 171.63C444.4 172.44 444.234 173.845 442.614 174.771Z" fill="url(#paint9_linear_864_1246)"/>
<path d="M442.614 173.928L295.6 258.81C293.996 259.736 291.549 259.835 290.16 259.042L202.434 208.4C201.971 208.135 201.707 207.805 201.574 207.458C201.36 208.119 201.624 208.78 202.434 209.26L290.16 259.901C291.549 260.711 293.996 260.612 295.6 259.67L442.614 174.788C443.689 174.159 444.118 173.333 443.854 172.589C443.689 173.068 443.292 173.548 442.614 173.928Z" fill="white"/>
<path d="M251.257 241.285V239.665C251.257 239.516 251.356 239.45 251.472 239.516L257.159 242.806C257.275 242.872 257.374 243.054 257.374 243.203V244.823C257.374 244.972 257.275 245.038 257.159 244.972L251.472 241.682C251.356 241.615 251.257 241.434 251.257 241.285Z" fill="#2842A2"/>
<path d="M259.755 246.195V244.575C259.755 244.426 259.855 244.36 259.97 244.426L265.658 247.716C265.773 247.782 265.873 247.964 265.873 248.113V249.733C265.873 249.882 265.773 249.948 265.658 249.882L259.97 246.592C259.855 246.526 259.755 246.344 259.755 246.195Z" fill="#2842A2"/>
<path d="M251.902 220.734L374.067 150.203C374.877 149.74 375.885 149.74 376.696 150.203L420.195 175.366C420.823 175.73 420.823 176.623 420.195 176.987L298.08 247.485C297.269 247.948 296.261 247.948 295.451 247.485L251.886 222.354C251.257 221.99 251.257 221.098 251.886 220.734H251.902Z" fill="#ADB1F2"/>
<path d="M251.902 222.354L252.332 222.602L374.067 152.319C374.877 151.856 375.886 151.856 376.696 152.319L419.765 177.235L420.195 176.987C420.823 176.623 420.823 175.73 420.195 175.366L376.696 150.203C375.886 149.74 374.877 149.723 374.067 150.203L251.902 220.734C251.274 221.098 251.274 221.99 251.902 222.354Z" fill="#9198DB"/>
<path d="M379.969 156.585L267.444 221.544L261.872 219.329L375.257 153.857L379.969 156.585Z" fill="#24126A"/>
<path d="M391.543 163.264L292.012 220.717L287.283 218.006L386.831 160.536L391.543 163.264Z" fill="#24126A"/>
<path d="M399.082 167.612L281.894 235.267L277.165 232.539L394.353 164.884L399.082 167.612Z" fill="#24126A"/>
<path d="M406.605 171.96L289.416 239.615L284.704 236.887L401.893 169.232L406.605 171.96Z" fill="#24126A"/>
<path d="M414.144 176.309L296.955 243.963L292.243 241.252L409.432 173.581L414.144 176.309Z" fill="#24126A"/>
<path d="M267.443 221.544L262.731 224.272L258.003 221.544L262.731 218.833L267.443 221.544Z" fill="#24126A"/>
<path d="M297.732 217.427L274.288 230.951L269.576 228.223L293.186 214.6L297.732 217.427Z" fill="#24126A"/>
<path d="M295.385 189.122L328.319 170.109C329.609 169.365 329.609 168.158 328.319 167.414L305.801 154.402C304.511 153.658 302.428 153.658 301.138 154.402L268.204 173.415C266.914 174.159 266.914 175.366 268.204 176.11L290.722 189.122C292.012 189.866 294.095 189.866 295.385 189.122Z" fill="url(#paint10_linear_864_1246)"/>
<path d="M268.204 174.54L301.138 155.527C302.428 154.783 304.511 154.783 305.801 155.527L328.319 168.538C328.716 168.77 328.98 169.051 329.129 169.332C329.476 168.687 329.212 167.943 328.319 167.431L305.801 154.419C304.511 153.675 302.428 153.675 301.138 154.419L268.204 173.432C267.311 173.945 267.047 174.672 267.394 175.333C267.543 175.036 267.807 174.771 268.204 174.54Z" fill="#9198DB"/>
<path d="M443.623 171.266L425.039 61.0219L426.527 60.3936L424.279 59.104C423.849 58.8229 423.22 58.8395 422.543 59.2363L274.024 144.978C272.8 145.689 271.874 147.491 272.089 148.748L290.821 259.885C290.921 260.463 291.202 260.844 291.599 261.009L293.797 262.282L294.178 260.232L294.045 260.265L441.672 175.036C442.895 174.325 443.821 172.523 443.606 171.266H443.623Z" fill="url(#paint11_linear_864_1246)"/>
<path d="M274.867 147.987L272.42 146.913C272.139 147.541 272.007 148.202 272.106 148.748L290.838 259.885C290.937 260.463 291.218 260.844 291.615 261.009L293.814 262.282L294.194 260.232L294.062 260.265L301.535 255.95L274.867 147.987Z" fill="url(#paint12_linear_864_1246)"/>
<path d="M444.036 176.375L295.517 262.117C294.376 262.778 293.384 262.398 293.186 261.207L274.453 150.07C274.239 148.814 275.164 146.995 276.388 146.301L424.907 60.5589C426.048 59.8976 427.04 60.2778 427.238 61.4682L445.97 172.605C446.185 173.862 445.259 175.681 444.036 176.375Z" fill="#453C9E"/>
<g style="mix-blend-mode:lighten">
<path d="M712.653 280.618C710.289 280.618 707.974 280.006 705.94 278.832L572.549 201.82C571.342 201.125 570.615 199.869 570.615 198.463C570.615 197.058 571.342 195.802 572.549 195.107L656.076 146.879C656.324 146.747 656.605 146.747 656.853 146.879L796.56 227.546C797.766 228.257 798.494 229.513 798.494 230.902C798.494 232.291 797.766 233.564 796.56 234.258L719.349 278.832C717.315 280.006 715.001 280.618 712.636 280.618H712.653ZM706.717 277.493C710.305 279.559 714.984 279.559 718.572 277.493L795.782 232.919C796.51 232.506 796.94 231.745 796.94 230.902C796.94 230.059 796.51 229.315 795.766 228.885L656.44 148.45L656.175 148.599L573.293 196.446C572.566 196.86 572.136 197.62 572.136 198.463C572.136 199.307 572.566 200.067 573.293 200.481L706.684 277.493H706.717Z" fill="#42E8E0"/>
</g>
<path d="M562.547 173.432L570.648 177.665L651.926 130.743C653.282 129.966 655.662 130.049 657.233 130.958L797.403 211.889C798.742 211.145 804.859 208.202 804.859 208.202L801.9 215.939C801.784 216.286 801.519 216.601 801.073 216.865L715.48 266.283C714.124 267.06 711.743 266.978 710.173 266.068L566.73 183.253C566.085 182.873 565.688 182.426 565.523 181.98L562.58 173.465L562.547 173.432Z" fill="url(#paint13_linear_864_1246)"/>
<path d="M563.803 174.771L710.818 259.653C712.421 260.579 714.868 260.678 716.257 259.885L803.983 209.243C805.372 208.433 805.206 207.028 803.586 206.102L656.572 121.22C654.968 120.294 652.521 120.195 651.132 120.988L563.406 171.63C562.018 172.44 562.183 173.845 563.803 174.771Z" fill="url(#paint14_linear_864_1246)"/>
<path d="M563.803 173.928L710.818 258.81C712.421 259.736 714.868 259.835 716.257 259.042L803.983 208.4C804.446 208.135 804.71 207.805 804.843 207.458C805.058 208.119 804.793 208.78 803.983 209.26L716.257 259.901C714.868 260.711 712.421 260.612 710.818 259.67L563.803 174.788C562.729 174.159 562.299 173.333 562.563 172.589C562.729 173.068 563.125 173.548 563.803 173.928Z" fill="white"/>
<path d="M755.143 241.285V239.665C755.143 239.516 755.044 239.45 754.928 239.516L749.241 242.806C749.125 242.872 749.026 243.054 749.026 243.203V244.823C749.026 244.972 749.125 245.038 749.241 244.972L754.928 241.682C755.044 241.615 755.143 241.434 755.143 241.285Z" fill="#2842A2"/>
<path d="M746.645 246.195V244.575C746.645 244.426 746.546 244.36 746.43 244.426L740.743 247.716C740.627 247.782 740.528 247.964 740.528 248.113V249.733C740.528 249.882 740.627 249.948 740.743 249.882L746.43 246.592C746.546 246.526 746.645 246.344 746.645 246.195Z" fill="#2842A2"/>
<path d="M754.515 220.734L632.35 150.203C631.54 149.74 630.532 149.74 629.722 150.203L586.222 175.366C585.594 175.73 585.594 176.623 586.222 176.987L708.338 247.485C709.148 247.948 710.156 247.948 710.966 247.485L754.532 222.354C755.16 221.99 755.16 221.098 754.532 220.734H754.515Z" fill="#ADB1F2"/>
<path d="M754.515 222.354L754.085 222.602L632.367 152.319C631.557 151.856 630.548 151.856 629.738 152.319L586.669 177.235L586.239 176.987C585.611 176.623 585.611 175.73 586.239 175.366L629.738 150.203C630.548 149.74 631.557 149.723 632.367 150.203L754.532 220.734C755.16 221.098 755.16 221.99 754.532 222.354H754.515Z" fill="#9198DB"/>
<path d="M626.431 156.585L738.957 221.544L744.545 219.329L631.143 153.857L626.431 156.585Z" fill="#24126A"/>
<path d="M614.858 163.264L714.389 220.717L719.117 218.006L619.587 160.536L614.858 163.264Z" fill="#24126A"/>
<path d="M607.335 167.612L724.524 235.267L729.236 232.539L612.047 164.884L607.335 167.612Z" fill="#24126A"/>
<path d="M599.796 171.96L716.985 239.615L721.697 236.887L604.508 169.232L599.796 171.96Z" fill="#24126A"/>
<path d="M592.257 176.309L709.445 243.963L714.174 241.252L596.986 173.581L592.257 176.309Z" fill="#24126A"/>
<path d="M738.957 221.544L743.686 224.272L748.398 221.544L743.686 218.833L738.957 221.544Z" fill="#24126A"/>
<path d="M708.668 217.427L732.112 230.951L736.824 228.223L713.215 214.6L708.668 217.427Z" fill="#24126A"/>
<path d="M711.016 189.122L678.082 170.109C676.792 169.365 676.792 168.158 678.082 167.414L700.6 154.402C701.89 153.658 703.973 153.658 705.263 154.402L738.197 173.415C739.486 174.159 739.486 175.366 738.197 176.11L715.678 189.122C714.389 189.866 712.306 189.866 711.016 189.122Z" fill="url(#paint15_linear_864_1246)"/>
<path d="M738.213 174.54L705.279 155.526C703.989 154.782 701.906 154.782 700.617 155.526L678.098 168.538C677.701 168.77 677.437 169.051 677.288 169.332C676.941 168.687 677.205 167.943 678.098 167.43L700.617 154.419C701.906 153.675 703.989 153.675 705.279 154.419L738.213 173.432C739.106 173.945 739.371 174.672 739.023 175.333C738.875 175.036 738.61 174.771 738.213 174.54Z" fill="#9198DB"/>
<path d="M562.778 171.266L581.361 61.0219L579.874 60.3936L582.122 59.104C582.552 58.8229 583.18 58.8395 583.858 59.2363L732.377 144.978C733.6 145.689 734.526 147.491 734.311 148.748L715.579 259.885C715.48 260.463 715.199 260.844 714.802 261.009L712.603 262.282L712.223 260.232L712.355 260.265L564.729 175.036C563.505 174.325 562.58 172.523 562.795 171.266H562.778Z" fill="url(#paint16_linear_864_1246)"/>
<path d="M731.534 147.987L733.981 146.913C734.262 147.541 734.394 148.202 734.295 148.748L715.563 259.885C715.463 260.463 715.182 260.844 714.785 261.009L712.587 262.282L712.206 260.232L712.339 260.265L704.865 255.95L731.534 147.987Z" fill="url(#paint17_linear_864_1246)"/>
<path d="M562.381 176.375L710.9 262.117C712.041 262.778 713.033 262.398 713.231 261.207L731.964 150.07C732.179 148.814 731.253 146.995 730.029 146.301L581.51 60.5589C580.37 59.8976 579.378 60.2778 579.179 61.4682L560.447 172.605C560.232 173.862 561.158 175.681 562.381 176.375Z" fill="#453C9E"/>
<path d="M503.209 307.203L364.907 227.364L503.209 147.524L641.493 227.364L503.209 307.203Z" fill="#BCBEFF"/>
<path d="M503.209 285.412L402.669 227.364L503.209 169.332L603.731 227.364L503.209 285.412Z" fill="#453C9E"/>
<path d="M503.209 173.267L600.325 229.331L603.731 227.364L503.209 169.332L402.669 227.364L406.075 229.331L503.209 173.267Z" fill="white"/>
<path d="M641.493 227.364V272.632L503.208 352.471V307.203L641.493 227.364Z" fill="url(#paint18_linear_864_1246)"/>
<path d="M364.907 227.364V272.615L503.209 352.471V307.203L364.907 227.364Z" fill="#24126A"/>
<g opacity="0.51">
<path d="M374.282 247.7V261.951L493.834 330.978V316.726L374.282 247.7Z" fill="#453C9E"/>
</g>
<path d="M503.209 304.607L367.156 226.074L364.907 227.364L503.209 307.203L641.493 227.364L639.245 226.074L503.209 304.607Z" fill="white"/>
<path d="M620.744 259.075V267.176L523.941 323.075V314.974L620.744 259.075Z" fill="#453C9E"/>
<path opacity="0.51" d="M364.907 227.364V272.615L503.209 352.471V307.203L364.907 227.364Z" fill="#453C9E"/>
<path d="M462.834 304.806L437.786 290.339V293.332L462.834 307.798V304.806Z" fill="#42E8E0"/>
<path d="M434.182 288.289L427.403 284.371V287.363L434.182 291.282V288.289Z" fill="#42E8E0"/>
<path d="M402.405 269.937L388.517 261.935V264.911L402.388 272.93L402.405 269.937Z" fill="#42E8E0"/>
<path d="M415.069 277.261L405.034 271.458L405.017 274.451L415.069 280.254V277.261Z" fill="#42E8E0"/>
<path d="M424.477 282.701L417.698 278.782V281.758L424.477 285.677V282.701Z" fill="#42E8E0"/>
<path d="M503.341 189.254L498.959 186.725L503.341 184.179L507.739 186.725L503.341 189.254Z" fill="#42E8E0"/>
<path opacity="0.1" d="M512.12 194.33L507.739 191.784L512.12 189.254L516.518 191.784L512.12 194.33Z" fill="#42E8E0"/>
<path opacity="0.4" d="M520.916 199.406L516.518 196.86L520.916 194.33L525.297 196.86L520.916 199.406Z" fill="#42E8E0"/>
<path d="M529.695 204.465L525.297 201.935L529.695 199.406L534.076 201.935L529.695 204.465Z" fill="#42E8E0"/>
<path opacity="0.4" d="M538.474 209.541L534.076 207.011L538.474 204.465L542.872 207.011L538.474 209.541Z" fill="#42E8E0"/>
<path d="M547.253 214.616L542.872 212.07L547.253 209.541L551.651 212.07L547.253 214.616Z" fill="#42E8E0"/>
<path d="M556.032 219.676L551.651 217.146L556.032 214.617L560.43 217.146L556.032 219.676Z" fill="#42E8E0"/>
<path d="M564.828 224.751L560.43 222.222L564.828 219.676L569.21 222.222L564.828 224.751Z" fill="#42E8E0"/>
<path opacity="0.1" d="M573.607 229.827L569.209 227.281L573.607 224.751L577.989 227.281L573.607 229.827Z" fill="#42E8E0"/>
<path d="M494.528 194.347L490.131 191.817L494.528 189.271L498.926 191.817L494.528 194.347Z" fill="#42E8E0"/>
<path d="M503.308 199.422L498.926 196.876L503.308 194.347L507.705 196.876L503.308 199.422Z" fill="#42E8E0"/>
<path d="M512.087 204.482L507.706 201.952L512.087 199.422L516.485 201.952L512.087 204.482Z" fill="#42E8E0"/>
<path d="M520.883 209.557L516.485 207.028L520.883 204.482L525.264 207.028L520.883 209.557Z" fill="#42E8E0"/>
<path d="M529.662 214.633L525.264 212.087L529.662 209.557L534.043 212.087L529.662 214.633Z" fill="#42E8E0"/>
<path d="M538.441 219.709L534.043 217.163L538.441 214.633L542.839 217.163L538.441 219.709Z" fill="#42E8E0"/>
<path d="M547.22 224.768L542.839 222.238L547.22 219.709L551.618 222.238L547.22 224.768Z" fill="#42E8E0"/>
<path d="M555.999 229.844L551.618 227.314L555.999 224.768L560.397 227.314L555.999 229.844Z" fill="#42E8E0"/>
<path d="M564.795 234.919L560.397 232.373L564.795 229.844L569.176 232.373L564.795 234.919Z" fill="#42E8E0"/>
<path d="M485.716 199.439L481.318 196.909L485.716 194.363L490.098 196.909L485.716 199.439Z" fill="#42E8E0"/>
<path d="M494.496 204.515L490.098 201.969L494.496 199.439L498.877 201.969L494.496 204.515Z" fill="#42E8E0"/>
<path d="M503.275 209.574L498.877 207.044L503.275 204.515L507.672 207.044L503.275 209.574Z" fill="#42E8E0"/>
<path opacity="0.1" d="M512.054 214.65L507.673 212.12L512.054 209.574L516.452 212.12L512.054 214.65Z" fill="#42E8E0"/>
<path opacity="0.4" d="M520.833 219.725L516.452 217.179L520.833 214.65L525.231 217.179L520.833 219.725Z" fill="#42E8E0"/>
<path opacity="0.4" d="M529.629 224.785L525.231 222.255L529.629 219.725L534.01 222.255L529.629 224.785Z" fill="#42E8E0"/>
<path d="M538.408 229.86L534.01 227.331L538.408 224.784L542.789 227.331L538.408 229.86Z" fill="#42E8E0"/>
<path d="M547.187 234.936L542.789 232.39L547.187 229.86L551.585 232.39L547.187 234.936Z" fill="#42E8E0"/>
<path d="M555.966 240.012L551.585 237.466L555.966 234.936L560.364 237.466L555.966 240.012Z" fill="#42E8E0"/>
<path opacity="0.4" d="M476.887 204.531L472.506 202.002L476.887 199.455L481.285 202.002L476.887 204.531Z" fill="#42E8E0"/>
<path opacity="0.4" d="M485.667 209.607L481.285 207.061L485.667 204.531L490.065 207.061L485.667 209.607Z" fill="#42E8E0"/>
<path opacity="0.1" d="M494.462 214.666L490.064 212.137L494.462 209.607L498.844 212.137L494.462 214.666Z" fill="#42E8E0"/>
<path d="M503.242 219.742L498.844 217.212L503.242 214.666L507.623 217.212L503.242 219.742Z" fill="#42E8E0"/>
<path d="M512.021 224.818L507.623 222.271L512.021 219.742L516.419 222.271L512.021 224.818Z" fill="#42E8E0"/>
<path d="M520.8 229.877L516.419 227.347L520.8 224.818L525.198 227.347L520.8 229.877Z" fill="#42E8E0"/>
<path opacity="0.4" d="M529.579 234.952L525.198 232.423L529.579 229.877L533.977 232.423L529.579 234.952Z" fill="#42E8E0"/>
<path d="M538.375 240.028L533.977 237.482L538.375 234.953L542.756 237.482L538.375 240.028Z" fill="#42E8E0"/>
<path d="M547.154 245.087L542.756 242.558L547.154 240.028L551.535 242.558L547.154 245.087Z" fill="#42E8E0"/>
<path d="M468.075 209.623L463.677 207.094L468.075 204.548L472.456 207.094L468.075 209.623Z" fill="#42E8E0"/>
<path d="M476.854 214.699L472.457 212.153L476.854 209.623L481.252 212.153L476.854 214.699Z" fill="#42E8E0"/>
<path d="M485.634 219.758L481.252 217.229L485.634 214.699L490.031 217.229L485.634 219.758Z" fill="#42E8E0"/>
<path d="M494.413 224.834L490.031 222.305L494.413 219.758L498.811 222.305L494.413 224.834Z" fill="#42E8E0"/>
<path d="M503.208 229.91L498.811 227.364L503.208 224.834L507.59 227.364L503.208 229.91Z" fill="#42E8E0"/>
<path d="M511.988 234.969L507.59 232.439L511.988 229.91L516.369 232.439L511.988 234.969Z" fill="#42E8E0"/>
<path d="M520.767 240.045L516.369 237.515L520.767 234.969L525.165 237.515L520.767 240.045Z" fill="#42E8E0"/>
<path d="M529.546 245.121L525.165 242.574L529.546 240.045L533.944 242.574L529.546 245.121Z" fill="#42E8E0"/>
<path d="M538.325 250.18L533.944 247.65L538.325 245.121L542.723 247.65L538.325 250.18Z" fill="#42E8E0"/>
<path d="M459.263 214.716L454.865 212.17L459.263 209.64L463.644 212.17L459.263 214.716Z" fill="#42E8E0"/>
<path d="M468.042 219.775L463.644 217.245L468.042 214.716L472.423 217.245L468.042 219.775Z" fill="#42E8E0"/>
<path opacity="0.4" d="M476.821 224.851L472.423 222.321L476.821 219.775L481.219 222.321L476.821 224.851Z" fill="#42E8E0"/>
<path d="M485.601 229.926L481.219 227.397L485.601 224.851L489.998 227.397L485.601 229.926Z" fill="#42E8E0"/>
<path opacity="0.1" d="M494.38 235.002L489.998 232.456L494.38 229.926L498.777 232.456L494.38 235.002Z" fill="#42E8E0"/>
<path d="M503.175 240.061L498.778 237.532L503.175 235.002L507.557 237.532L503.175 240.061Z" fill="#42E8E0"/>
<path d="M511.955 245.137L507.557 242.607L511.955 240.061L516.336 242.607L511.955 245.137Z" fill="#42E8E0"/>
<path d="M520.734 250.213L516.336 247.667L520.734 245.137L525.132 247.667L520.734 250.213Z" fill="#42E8E0"/>
<path d="M529.513 255.272L525.132 252.742L529.513 250.213L533.911 252.742L529.513 255.272Z" fill="#42E8E0"/>
<path d="M450.434 219.808L446.053 217.262L450.434 214.732L454.832 217.262L450.434 219.808Z" fill="#42E8E0"/>
<path d="M459.213 224.867L454.832 222.338L459.213 219.808L463.611 222.338L459.213 224.867Z" fill="#42E8E0"/>
<path opacity="0.4" d="M468.009 229.943L463.611 227.413L468.009 224.867L472.39 227.413L468.009 229.943Z" fill="#42E8E0"/>
<path d="M476.788 235.019L472.39 232.472L476.788 229.943L481.17 232.472L476.788 235.019Z" fill="#42E8E0"/>
<path d="M485.567 240.078L481.169 237.548L485.567 235.019L489.965 237.548L485.567 240.078Z" fill="#42E8E0"/>
<path opacity="0.1" d="M494.347 245.154L489.965 242.624L494.347 240.078L498.745 242.624L494.347 245.154Z" fill="#42E8E0"/>
<path opacity="0.4" d="M503.126 250.229L498.744 247.7L503.126 245.154L507.524 247.7L503.126 250.229Z" fill="#42E8E0"/>
<path d="M511.922 255.305L507.524 252.759L511.922 250.229L516.303 252.759L511.922 255.305Z" fill="#42E8E0"/>
<path opacity="0.1" d="M520.701 260.364L516.303 257.835L520.701 255.305L525.082 257.835L520.701 260.364Z" fill="#42E8E0"/>
<path d="M441.622 224.9L437.224 222.354L441.622 219.825L446.003 222.354L441.622 224.9Z" fill="#42E8E0"/>
<path opacity="0.4" d="M450.401 229.959L446.003 227.43L450.401 224.9L454.799 227.43L450.401 229.959Z" fill="#42E8E0"/>
<path d="M459.18 235.035L454.799 232.506L459.18 229.959L463.578 232.506L459.18 235.035Z" fill="#42E8E0"/>
<path d="M467.959 240.111L463.578 237.565L467.959 235.035L472.357 237.565L467.959 240.111Z" fill="#42E8E0"/>
<path d="M476.755 245.17L472.357 242.641L476.755 240.111L481.136 242.641L476.755 245.17Z" fill="#42E8E0"/>
<path d="M485.534 250.246L481.136 247.716L485.534 245.17L489.916 247.716L485.534 250.246Z" fill="#42E8E0"/>
<path d="M494.313 255.322L489.916 252.775L494.313 250.246L498.711 252.775L494.313 255.322Z" fill="#42E8E0"/>
<path opacity="0.4" d="M503.093 260.381L498.711 257.851L503.093 255.322L507.491 257.851L503.093 260.381Z" fill="#42E8E0"/>
<path d="M511.872 265.457L507.49 262.927L511.872 260.381L516.27 262.927L511.872 265.457Z" fill="#42E8E0"/>
<path d="M432.793 229.993L428.412 227.446L432.793 224.917L437.191 227.446L432.793 229.993Z" fill="#42E8E0"/>
<path opacity="0.1" d="M441.589 235.052L437.191 232.522L441.589 229.993L445.97 232.522L441.589 235.052Z" fill="#42E8E0"/>
<path d="M450.368 240.127L445.97 237.598L450.368 235.052L454.749 237.598L450.368 240.127Z" fill="#42E8E0"/>
<path d="M459.147 245.203L454.749 242.657L459.147 240.127L463.545 242.657L459.147 245.203Z" fill="#42E8E0"/>
<path d="M467.926 250.262L463.545 247.733L467.926 245.203L472.324 247.733L467.926 250.262Z" fill="#42E8E0"/>
<path d="M476.706 255.338L472.324 252.809L476.706 250.262L481.103 252.809L476.706 255.338Z" fill="#42E8E0"/>
<path opacity="0.4" d="M485.501 260.414L481.103 257.868L485.501 255.338L489.882 257.868L485.501 260.414Z" fill="#42E8E0"/>
<path d="M494.28 265.473L489.883 262.943L494.28 260.414L498.662 262.943L494.28 265.473Z" fill="#42E8E0"/>
<path d="M503.059 270.549L498.662 268.019L503.059 265.473L507.457 268.019L503.059 270.549Z" fill="#42E8E0"/>
<path d="M503.209 228.852L364.907 149.012L503.209 69.1728L641.493 149.012L503.209 228.852Z" fill="#BCBEFF"/>
<path d="M503.209 207.044L402.669 149.012L503.209 90.9637L603.731 149.012L503.209 207.044Z" fill="#453C9E"/>
<path d="M503.209 94.8987L600.325 150.98L603.731 149.012L503.209 90.9637L402.669 149.012L406.075 150.98L503.209 94.8987Z" fill="white"/>
<path d="M641.493 149.012V194.264L503.208 274.103V228.852L641.493 149.012Z" fill="url(#paint19_linear_864_1246)"/>
<path d="M364.907 149.012V194.264L503.209 274.103V228.852L364.907 149.012Z" fill="#24126A"/>
<g opacity="0.51">
<path d="M374.282 169.348V183.6L493.834 252.61V238.358L374.282 169.348Z" fill="#453C9E"/>
</g>
<path d="M503.209 226.256L367.156 147.706L364.907 149.012L503.209 228.852L641.493 149.012L639.245 147.706L503.209 226.256Z" fill="white"/>
<path d="M620.744 180.723V188.825L523.941 244.707V236.606L620.744 180.723Z" fill="#453C9E"/>
<path opacity="0.51" d="M364.907 149.012V194.264L503.209 274.103V228.852L364.907 149.012Z" fill="#453C9E"/>
<path d="M462.834 226.438L437.786 211.988V214.98L462.834 229.43V226.438Z" fill="#42E8E0"/>
<path d="M434.182 209.938L427.403 206.019V208.995L434.182 212.914V209.938Z" fill="#42E8E0"/>
<path d="M402.405 191.586L388.517 183.567V186.559L402.388 194.578L402.405 191.586Z" fill="#42E8E0"/>
<path d="M415.069 198.893L405.034 193.107L405.017 196.083L415.069 201.886V198.893Z" fill="#42E8E0"/>
<path d="M424.477 204.333L417.698 200.414V203.407L424.477 207.325V204.333Z" fill="#42E8E0"/>
<path d="M503.341 110.903L498.959 108.357L503.341 105.827L507.739 108.357L503.341 110.903Z" fill="#42E8E0"/>
<path opacity="0.1" d="M512.12 115.962L507.739 113.433L512.12 110.903L516.518 113.433L512.12 115.962Z" fill="#42E8E0"/>
<path opacity="0.4" d="M520.916 121.038L516.518 118.508L520.916 115.962L525.297 118.508L520.916 121.038Z" fill="#42E8E0"/>
<path d="M529.695 126.114L525.297 123.567L529.695 121.038L534.076 123.567L529.695 126.114Z" fill="#42E8E0"/>
<path opacity="0.4" d="M538.474 131.173L534.076 128.643L538.474 126.114L542.872 128.643L538.474 131.173Z" fill="#42E8E0"/>
<path d="M547.253 136.249L542.872 133.719L547.253 131.173L551.651 133.719L547.253 136.249Z" fill="#42E8E0"/>
<path d="M556.032 141.324L551.651 138.778L556.032 136.249L560.43 138.778L556.032 141.324Z" fill="#42E8E0"/>
<path d="M564.828 146.4L560.43 143.854L564.828 141.324L569.21 143.854L564.828 146.4Z" fill="#42E8E0"/>
<path opacity="0.1" d="M573.607 151.459L569.209 148.93L573.607 146.4L577.989 148.93L573.607 151.459Z" fill="#42E8E0"/>
<path d="M494.528 115.995L490.131 113.449L494.528 110.919L498.926 113.449L494.528 115.995Z" fill="#42E8E0"/>
<path d="M503.308 121.054L498.926 118.525L503.308 115.995L507.705 118.525L503.308 121.054Z" fill="#42E8E0"/>
<path d="M512.087 126.13L507.706 123.601L512.087 121.054L516.485 123.601L512.087 126.13Z" fill="#42E8E0"/>
<path d="M520.883 131.206L516.485 128.66L520.883 126.13L525.264 128.66L520.883 131.206Z" fill="#42E8E0"/>
<path d="M529.662 136.265L525.264 133.735L529.662 131.206L534.043 133.735L529.662 136.265Z" fill="#42E8E0"/>
<path d="M538.441 141.341L534.043 138.811L538.441 136.265L542.839 138.811L538.441 141.341Z" fill="#42E8E0"/>
<path d="M547.22 146.416L542.839 143.87L547.22 141.341L551.618 143.87L547.22 146.416Z" fill="#42E8E0"/>
<path d="M555.999 151.476L551.618 148.946L555.999 146.417L560.397 148.946L555.999 151.476Z" fill="#42E8E0"/>
<path d="M564.795 156.551L560.397 154.022L564.795 151.476L569.176 154.022L564.795 156.551Z" fill="#42E8E0"/>
<path d="M485.716 121.087L481.318 118.541L485.716 116.012L490.098 118.541L485.716 121.087Z" fill="#42E8E0"/>
<path d="M494.496 126.147L490.098 123.617L494.496 121.087L498.877 123.617L494.496 126.147Z" fill="#42E8E0"/>
<path d="M503.275 131.222L498.877 128.693L503.275 126.147L507.672 128.693L503.275 131.222Z" fill="#42E8E0"/>
<path opacity="0.1" d="M512.054 136.298L507.673 133.752L512.054 131.222L516.452 133.752L512.054 136.298Z" fill="#42E8E0"/>
<path opacity="0.4" d="M520.833 141.357L516.452 138.828L520.833 136.298L525.231 138.828L520.833 141.357Z" fill="#42E8E0"/>
<path opacity="0.4" d="M529.629 146.433L525.231 143.903L529.629 141.357L534.01 143.903L529.629 146.433Z" fill="#42E8E0"/>
<path d="M538.408 151.509L534.01 148.963L538.408 146.433L542.789 148.963L538.408 151.509Z" fill="#42E8E0"/>
<path d="M547.187 156.568L542.789 154.038L547.187 151.509L551.585 154.038L547.187 156.568Z" fill="#42E8E0"/>
<path d="M555.966 161.644L551.585 159.114L555.966 156.568L560.364 159.114L555.966 161.644Z" fill="#42E8E0"/>
<path opacity="0.4" d="M476.887 126.163L472.506 123.634L476.887 121.104L481.285 123.634L476.887 126.163Z" fill="#42E8E0"/>
<path opacity="0.4" d="M485.667 131.239L481.285 128.709L485.667 126.163L490.065 128.709L485.667 131.239Z" fill="#42E8E0"/>
<path opacity="0.1" d="M494.462 136.315L490.064 133.785L494.462 131.239L498.844 133.785L494.462 136.315Z" fill="#42E8E0"/>
<path d="M503.242 141.39L498.844 138.844L503.242 136.315L507.623 138.844L503.242 141.39Z" fill="#42E8E0"/>
<path d="M512.021 146.45L507.623 143.92L512.021 141.39L516.419 143.92L512.021 146.45Z" fill="#42E8E0"/>
<path d="M520.8 151.525L516.419 148.996L520.8 146.45L525.198 148.996L520.8 151.525Z" fill="#42E8E0"/>
<path opacity="0.4" d="M529.579 156.601L525.198 154.055L529.579 151.525L533.977 154.055L529.579 156.601Z" fill="#42E8E0"/>
<path d="M538.375 161.66L533.977 159.131L538.375 156.601L542.756 159.131L538.375 161.66Z" fill="#42E8E0"/>
<path d="M547.154 166.736L542.756 164.206L547.154 161.66L551.535 164.206L547.154 166.736Z" fill="#42E8E0"/>
<path d="M468.075 131.255L463.677 128.726L468.075 126.196L472.456 128.726L468.075 131.255Z" fill="#42E8E0"/>
<path d="M476.854 136.331L472.457 133.802L476.854 131.255L481.252 133.802L476.854 136.331Z" fill="#42E8E0"/>
<path d="M485.634 141.407L481.252 138.861L485.634 136.331L490.031 138.861L485.634 141.407Z" fill="#42E8E0"/>
<path d="M494.413 146.466L490.031 143.937L494.413 141.407L498.811 143.937L494.413 146.466Z" fill="#42E8E0"/>
<path d="M503.208 151.542L498.811 149.012L503.208 146.466L507.59 149.012L503.208 151.542Z" fill="#42E8E0"/>
<path d="M511.988 156.618L507.59 154.071L511.988 151.542L516.369 154.088L511.988 156.618Z" fill="#42E8E0"/>
<path d="M520.767 161.693L516.369 159.147L520.767 156.618L525.165 159.147L520.767 161.693Z" fill="#42E8E0"/>
<path d="M529.546 166.753L525.165 164.223L529.546 161.693L533.944 164.223L529.546 166.753Z" fill="#42E8E0"/>
<path d="M538.325 171.828L533.944 169.299L538.325 166.753L542.723 169.299L538.325 171.828Z" fill="#42E8E0"/>
<path d="M459.263 136.348L454.865 133.818L459.263 131.289L463.644 133.818L459.263 136.348Z" fill="#42E8E0"/>
<path d="M468.042 141.423L463.644 138.894L468.042 136.348L472.423 138.894L468.042 141.423Z" fill="#42E8E0"/>
<path opacity="0.4" d="M476.821 146.499L472.423 143.953L476.821 141.423L481.219 143.953L476.821 146.499Z" fill="#42E8E0"/>
<path d="M485.601 151.558L481.219 149.029L485.601 146.499L489.998 149.029L485.601 151.558Z" fill="#42E8E0"/>
<path opacity="0.1" d="M494.38 156.634L489.998 154.104L494.38 151.558L498.777 154.104L494.38 156.634Z" fill="#42E8E0"/>
<path d="M503.175 161.71L498.778 159.164L503.175 156.634L507.557 159.164L503.175 161.71Z" fill="#42E8E0"/>
<path d="M511.955 166.769L507.557 164.239L511.955 161.71L516.336 164.239L511.955 166.769Z" fill="#42E8E0"/>
<path d="M520.734 171.845L516.336 169.315L520.734 166.769L525.132 169.315L520.734 171.845Z" fill="#42E8E0"/>
<path d="M529.513 176.921L525.132 174.374L529.513 171.845L533.911 174.374L529.513 176.921Z" fill="#42E8E0"/>
<path d="M450.434 141.44L446.053 138.91L450.434 136.381L454.832 138.91L450.434 141.44Z" fill="#42E8E0"/>
<path d="M459.213 146.516L454.832 143.986L459.213 141.44L463.611 143.986L459.213 146.516Z" fill="#42E8E0"/>
<path opacity="0.4" d="M468.009 151.591L463.611 149.045L468.009 146.516L472.39 149.045L468.009 151.591Z" fill="#42E8E0"/>
<path d="M476.788 156.651L472.39 154.121L476.788 151.591L481.17 154.121L476.788 156.651Z" fill="#42E8E0"/>
<path d="M485.567 161.726L481.169 159.197L485.567 156.651L489.965 159.197L485.567 161.726Z" fill="#42E8E0"/>
<path opacity="0.1" d="M494.347 166.802L489.965 164.256L494.347 161.726L498.745 164.256L494.347 166.802Z" fill="#42E8E0"/>
<path opacity="0.4" d="M503.126 171.861L498.744 169.332L503.126 166.802L507.524 169.332L503.126 171.861Z" fill="#42E8E0"/>
<path d="M511.922 176.937L507.524 174.407L511.922 171.861L516.303 174.407L511.922 176.937Z" fill="#42E8E0"/>
<path opacity="0.1" d="M520.701 182.013L516.303 179.467L520.701 176.937L525.082 179.467L520.701 182.013Z" fill="#42E8E0"/>
<path d="M441.622 146.532L437.224 144.003L441.622 141.473L446.003 144.003L441.622 146.532Z" fill="#42E8E0"/>
<path opacity="0.4" d="M450.401 151.608L446.003 149.078L450.401 146.532L454.799 149.078L450.401 151.608Z" fill="#42E8E0"/>
<path d="M459.18 156.684L454.799 154.138L459.18 151.608L463.578 154.138L459.18 156.684Z" fill="#42E8E0"/>
<path d="M467.959 161.743L463.578 159.213L467.959 156.684L472.357 159.213L467.959 161.743Z" fill="#42E8E0"/>
<path d="M476.755 166.819L472.357 164.289L476.755 161.743L481.136 164.289L476.755 166.819Z" fill="#42E8E0"/>
<path d="M485.534 171.894L481.136 169.348L485.534 166.819L489.916 169.348L485.534 171.894Z" fill="#42E8E0"/>
<path d="M494.313 176.954L489.916 174.424L494.313 171.894L498.711 174.424L494.313 176.954Z" fill="#42E8E0"/>
<path opacity="0.4" d="M503.093 182.029L498.711 179.5L503.093 176.954L507.491 179.5L503.093 182.029Z" fill="#42E8E0"/>
<path d="M511.872 187.105L507.49 184.559L511.872 182.029L516.27 184.559L511.872 187.105Z" fill="#42E8E0"/>
<path d="M432.793 151.625L428.412 149.095L432.793 146.549L437.191 149.095L432.793 151.625Z" fill="#42E8E0"/>
<path opacity="0.1" d="M441.589 156.7L437.191 154.154L441.589 151.625L445.97 154.154L441.589 156.7Z" fill="#42E8E0"/>
<path d="M450.368 161.759L445.97 159.23L450.368 156.7L454.749 159.23L450.368 161.759Z" fill="#42E8E0"/>
<path d="M459.147 166.835L454.749 164.306L459.147 161.776L463.545 164.306L459.147 166.835Z" fill="#42E8E0"/>
<path d="M467.926 171.911L463.545 169.381L467.926 166.835L472.324 169.381L467.926 171.911Z" fill="#42E8E0"/>
<path d="M476.706 176.987L472.324 174.441L476.706 171.911L481.103 174.441L476.706 176.987Z" fill="#42E8E0"/>
<path opacity="0.4" d="M485.501 182.046L481.103 179.516L485.501 176.987L489.882 179.516L485.501 182.046Z" fill="#42E8E0"/>
<path d="M494.28 187.122L489.883 184.592L494.28 182.046L498.662 184.592L494.28 187.122Z" fill="#42E8E0"/>
<path d="M503.059 192.197L498.662 189.651L503.059 187.122L507.457 189.651L503.059 192.197Z" fill="#42E8E0"/>
<g style="mix-blend-mode:lighten">
<path d="M652.075 472.437C649.677 472.437 647.329 471.809 645.263 470.619L566.68 425.251C565.44 424.54 564.712 423.267 564.712 421.845C564.712 420.423 565.44 419.15 566.68 418.439L708.867 336.351C709.098 336.219 709.396 336.219 709.644 336.351L710.305 336.732L794.658 385.439C795.882 386.15 796.625 387.423 796.625 388.845C796.625 390.267 795.898 391.54 794.658 392.251L658.903 470.619C656.836 471.809 654.488 472.437 652.091 472.437H652.075ZM709.247 337.906L567.457 419.762C566.713 420.192 566.267 420.969 566.267 421.829C566.267 422.688 566.713 423.466 567.457 423.895L646.04 469.263C649.694 471.379 654.472 471.379 658.126 469.263L793.881 390.895C794.625 390.465 795.071 389.688 795.071 388.828C795.071 387.969 794.625 387.191 793.881 386.762L709.263 337.906H709.247Z" fill="#42E8E0"/>
</g>
<path d="M709.412 304.641L690.498 192.445L692.019 191.801L689.737 190.494C689.291 190.213 688.663 190.23 687.968 190.627L536.821 277.89C535.581 278.601 534.638 280.436 534.853 281.725L553.916 394.813C554.015 395.409 554.313 395.789 554.71 395.971L556.942 397.26L557.322 395.177L557.19 395.21L707.412 308.476C708.652 307.765 709.594 305.93 709.379 304.641H709.412Z" fill="url(#paint20_linear_864_1246)"/>
<path d="M537.68 280.948L535.2 279.857C534.919 280.485 534.787 281.163 534.886 281.725L553.949 394.813C554.048 395.409 554.346 395.789 554.743 395.971L556.975 397.26L557.355 395.177L557.223 395.21L564.828 390.829L537.68 280.965V280.948Z" fill="url(#paint21_linear_864_1246)"/>
<path d="M709.826 309.832L558.678 397.095C557.504 397.773 556.512 397.376 556.314 396.169L537.251 283.081C537.036 281.791 537.978 279.956 539.218 279.245L690.366 191.982C691.54 191.305 692.532 191.701 692.73 192.908L711.793 305.996C712.008 307.286 711.066 309.121 709.826 309.832Z" fill="#24126A"/>
<g opacity="0.51">
<path d="M688.382 199.191L542.69 283.313L560.744 389.82L706.337 305.765L688.382 199.191Z" fill="#453C9E"/>
</g>
<path d="M804.826 363.383L796.576 367.699L713.86 319.95C712.471 319.157 710.057 319.256 708.453 320.182L565.804 402.534C564.431 401.774 558.215 398.781 558.215 398.781L561.24 406.651C561.373 406.998 561.637 407.329 562.084 407.594L649.198 457.888C650.587 458.682 653 458.582 654.604 457.657L800.577 373.37C801.238 372.989 801.635 372.526 801.8 372.063L804.793 363.4L804.826 363.383Z" fill="url(#paint22_linear_864_1246)"/>
<path d="M803.553 364.739L653.943 451.109C652.306 452.052 649.826 452.151 648.404 451.341L559.124 399.79C557.702 398.963 557.884 397.541 559.521 396.599L709.131 310.229C710.768 309.286 713.248 309.187 714.67 309.997L803.95 361.548C805.372 362.375 805.19 363.797 803.553 364.739Z" fill="url(#paint23_linear_864_1246)"/>
<path d="M803.553 363.863L653.943 450.233C652.306 451.175 649.826 451.275 648.404 450.465L559.124 398.914C558.661 398.649 558.38 398.302 558.264 397.955C558.033 398.633 558.314 399.31 559.124 399.79L648.404 451.341C649.826 452.167 652.306 452.052 653.943 451.109L803.553 364.739C804.661 364.111 805.074 363.251 804.81 362.507C804.644 362.987 804.231 363.483 803.553 363.879V363.863Z" fill="white"/>
<path d="M608.823 432.427V430.79C608.823 430.641 608.922 430.558 609.038 430.625L614.825 433.964C614.941 434.03 615.04 434.212 615.04 434.361V435.998C615.04 436.147 614.941 436.229 614.825 436.163L609.038 432.823C608.922 432.757 608.823 432.575 608.823 432.427Z" fill="#2842A2"/>
<path d="M617.47 437.42V435.783C617.47 435.634 617.569 435.551 617.685 435.618L623.472 438.957C623.588 439.023 623.687 439.205 623.687 439.354V440.991C623.687 441.14 623.588 441.222 623.472 441.156L617.685 437.817C617.569 437.75 617.47 437.569 617.47 437.42Z" fill="#2842A2"/>
<path d="M582.419 394.962L706.75 323.191C707.577 322.711 708.602 322.711 709.429 323.191L753.705 348.801C754.333 349.165 754.333 350.091 753.705 350.454L629.44 422.193C628.614 422.672 627.589 422.672 626.762 422.193L582.436 396.615C581.808 396.252 581.808 395.326 582.436 394.962H582.419Z" fill="#ADB1F2"/>
<path d="M582.419 396.615L582.866 396.88L706.75 325.357C707.577 324.877 708.602 324.877 709.429 325.357L753.258 350.719L753.705 350.454C754.333 350.091 754.333 349.165 753.705 348.801L709.429 323.191C708.602 322.711 707.577 322.711 706.75 323.191L582.419 394.962C581.791 395.326 581.791 396.252 582.419 396.615Z" fill="#9198DB"/>
<path d="M712.752 329.672L604.756 392.019L599.961 389.258L707.957 326.911L712.752 329.672Z" fill="#24126A"/>
<path d="M724.523 336.467L623.24 394.946L618.429 392.185L719.729 333.706L724.523 336.467Z" fill="#24126A"/>
<path d="M732.195 340.898L612.94 409.76L608.129 406.982L727.4 338.121L732.195 340.898Z" fill="#24126A"/>
<path d="M739.866 345.329L620.595 414.174L615.8 411.413L735.055 342.552L739.866 345.329Z" fill="#24126A"/>
<path d="M747.538 349.76L628.266 418.605L623.472 415.844L742.727 346.982L747.538 349.76Z" fill="#24126A"/>
<path d="M598.242 395.789L593.431 398.566L588.636 395.789L593.431 393.028L598.242 395.789Z" fill="#24126A"/>
<path d="M615.172 399.608L605.202 405.362L600.408 402.584L610.377 396.83L615.172 399.608Z" fill="#24126A"/>
<path d="M711.528 412.339L745.058 392.978C746.364 392.218 746.364 390.994 745.058 390.234L722.143 377.007C720.837 376.246 718.704 376.246 717.398 377.007L683.868 396.367C682.562 397.128 682.562 398.351 683.868 399.112L706.783 412.339C708.089 413.099 710.222 413.099 711.528 412.339Z" fill="url(#paint24_linear_864_1246)"/>
<path d="M683.852 397.475L717.381 378.115C718.687 377.354 720.82 377.354 722.126 378.115L745.042 391.341C745.438 391.573 745.703 391.854 745.868 392.151C746.215 391.49 745.951 390.746 745.042 390.217L722.126 376.99C720.82 376.23 718.687 376.23 717.381 376.99L683.852 396.351C682.942 396.88 682.678 397.624 683.025 398.285C683.174 397.988 683.438 397.707 683.852 397.475Z" fill="#9198DB"/>
<g opacity="0.11">
<path d="M709.296 310.047L559.686 396.417C558.049 397.359 555.569 397.459 554.148 396.648L464.868 345.098C463.446 344.271 463.628 342.849 465.264 341.907L614.874 255.536C616.511 254.594 618.991 254.495 620.413 255.305L709.693 306.856C711.115 307.683 710.933 309.104 709.296 310.047Z" fill="url(#paint25_linear_864_1246)"/>
<path d="M559.24 325.539L592.769 306.178C594.075 305.418 594.075 304.194 592.769 303.434L569.854 290.207C568.548 289.446 566.415 289.446 565.109 290.207L531.579 309.567C530.273 310.328 530.273 311.551 531.579 312.312L554.495 325.539C555.801 326.299 557.934 326.299 559.24 325.539Z" fill="url(#paint26_linear_864_1246)"/>
<path d="M531.563 310.675L565.093 291.315C566.399 290.554 568.532 290.554 569.838 291.315L592.753 304.541C593.15 304.773 593.414 305.054 593.58 305.351C593.927 304.69 593.662 303.946 592.753 303.417L569.838 290.19C568.532 289.43 566.399 289.43 565.093 290.19L531.563 309.551C530.654 310.08 530.389 310.824 530.736 311.485C530.885 311.188 531.15 310.907 531.563 310.675Z" fill="#9198DB"/>
<path d="M516.832 355.778L641.162 284.007C641.989 283.527 643.014 283.527 643.841 284.007L688.117 309.617C688.745 309.981 688.745 310.907 688.117 311.27L563.853 383.008C563.026 383.488 562.001 383.488 561.174 383.008L516.848 357.431C516.204 357.068 516.204 356.142 516.848 355.778H516.832Z" fill="#ADB1F2"/>
<path d="M516.832 357.431L517.278 357.696L641.162 286.173C641.989 285.693 643.014 285.693 643.841 286.173L687.671 311.535L688.117 311.27C688.745 310.907 688.745 309.981 688.117 309.617L643.841 284.007C643.014 283.527 641.989 283.527 641.162 284.007L516.832 355.778C516.204 356.142 516.204 357.068 516.832 357.431Z" fill="#9198DB"/>
<path d="M676.527 307.865L568.218 370.394L572.5 372.874L680.81 310.345L676.527 307.865Z" fill="#24126A"/>
<path d="M665.103 301.284L562.166 360.705L566.448 363.185L669.401 303.748L665.103 301.284Z" fill="#24126A"/>
<path d="M554.478 365.152L544.856 370.708L549.155 373.188L558.76 367.632L554.478 365.152Z" fill="#24126A"/>
<path d="M562.976 373.419L556.28 377.288L560.562 379.768L567.258 375.899L562.976 373.419Z" fill="#24126A"/>
<path d="M657.96 297.151L537.713 366.574L541.996 369.054L662.242 299.631L657.96 297.151Z" fill="#24126A"/>
<path d="M650.801 293.018L530.554 362.441L534.853 364.921L655.1 295.498L650.801 293.018Z" fill="#24126A"/>
<path d="M643.659 288.901L523.412 358.324L527.694 360.788L647.941 291.364L643.659 288.901Z" fill="#24126A"/>
</g>
<path d="M597.548 349.214L609.336 342.403L609.667 344.453L597.895 351.264L597.548 349.214Z" fill="#42E8E0"/>
<path d="M611.22 341.311L617.652 337.591L617.999 339.642L611.568 343.362L611.22 341.311Z" fill="#42E8E0"/>
<path d="M627.638 331.838L632.284 329.143L632.631 331.193L627.985 333.871L627.638 331.838Z" fill="#42E8E0"/>
<path d="M624.249 333.789L625.836 332.879L626.183 334.913L624.596 335.839L624.249 333.789Z" fill="#42E8E0"/>
<path d="M619.57 336.5L622.447 334.83L622.794 336.88L619.917 338.55L619.57 336.5Z" fill="#42E8E0"/>
<path d="M606.872 333.557L611.518 330.879L611.865 332.912L607.22 335.607L606.872 333.557Z" fill="#42E8E0"/>
<path d="M595.96 339.857L605.07 334.599L605.417 336.649L596.307 341.907L595.96 339.857Z" fill="#42E8E0"/>
<path d="M609.022 306.691L618.115 301.433L618.462 303.467L609.369 308.741L609.022 306.691Z" fill="#42E8E0"/>
<path d="M604.326 309.402L607.22 307.732L607.567 309.782L604.673 311.436L604.326 309.402Z" fill="#42E8E0"/>
<path d="M610.543 316.048L619.636 310.791L619.983 312.841L610.873 318.099L610.543 316.048Z" fill="#42E8E0"/>
<path d="M605.847 318.76L608.741 317.09L609.088 319.14L606.194 320.81L605.847 318.76Z" fill="#42E8E0"/>
<path d="M602.293 266.283L585.148 276.187L584.8 274.153L601.945 264.233L602.293 266.283Z" fill="#42E8E0"/>
<path d="M608.344 262.778L604.095 265.242L603.748 263.191L607.997 260.745L608.344 262.778Z" fill="#42E8E0"/>
<path d="M638.484 260.794L621.323 270.714L620.975 268.664L638.137 258.744L638.484 260.794Z" fill="#42E8E0"/>
<path d="M644.519 257.306L640.286 259.753L639.939 257.702L644.171 255.255L644.519 257.306Z" fill="#42E8E0"/>
<path d="M590.587 278.187L585.925 280.866L585.594 278.815L590.24 276.137L590.587 278.187Z" fill="#42E8E0"/>
<path d="M618.859 272.119L614.213 274.798L613.866 272.748L618.512 270.069L618.859 272.119Z" fill="#42E8E0"/>
<path d="M601.483 271.871L592.373 277.146L592.042 275.095L601.135 269.838L601.483 271.871Z" fill="#42E8E0"/>
<path d="M606.178 269.176L603.284 270.83L602.937 268.796L605.831 267.126L606.178 269.176Z" fill="#42E8E0"/>
<path d="M617.156 262.828L608.046 268.085L607.716 266.052L616.809 260.778L617.156 262.828Z" fill="#42E8E0"/>
<path d="M621.852 260.116L618.958 261.786L618.611 259.736L621.504 258.083L621.852 260.116Z" fill="#42E8E0"/>
<path d="M618.065 267.441L613.419 270.119L613.072 268.085L617.718 265.39L618.065 267.441Z" fill="#42E8E0"/>
<path d="M628.961 261.141L619.868 266.399L619.52 264.349L628.63 259.091L628.961 261.141Z" fill="#42E8E0"/>
<path d="M633.656 258.43L630.763 260.1L630.416 258.05L633.309 256.38L633.656 258.43Z" fill="#42E8E0"/>
<path d="M596.225 280.039L586.718 285.545L586.371 283.494L595.878 278.005L596.225 280.039Z" fill="#42E8E0"/>
<path d="M604.905 275.029L598.027 279.014L597.68 276.964L604.558 272.979L604.905 275.029Z" fill="#42E8E0"/>
<path d="M611.353 271.309L606.707 273.988L606.36 271.938L611.006 269.259L611.353 271.309Z" fill="#42E8E0"/>
<path d="M656.423 250.444L646.916 255.95L646.569 253.9L656.076 248.394L656.423 250.444Z" fill="#42E8E0"/>
<path d="M665.103 245.435L658.225 249.403L657.878 247.352L664.756 243.384L665.103 245.435Z" fill="#42E8E0"/>
<path d="M671.551 241.698L666.905 244.393L666.558 242.343L671.203 239.664L671.551 241.698Z" fill="#42E8E0"/>
<path d="M652.703 312.229L662.209 306.724L662.556 308.774L653.05 314.279L652.703 312.229Z" fill="#42E8E0"/>
<path d="M644.039 317.239L650.901 313.271L651.248 315.321L644.37 319.289L644.039 317.239Z" fill="#42E8E0"/>
<path d="M637.591 320.975L642.237 318.28L642.584 320.331L637.922 323.009L637.591 320.975Z" fill="#42E8E0"/>
<path d="M649.545 319.206L659.068 313.701L659.399 315.751L649.892 321.24L649.545 319.206Z" fill="#42E8E0"/>
<path d="M640.881 324.216L647.759 320.248L648.09 322.282L641.229 326.266L640.881 324.216Z" fill="#42E8E0"/>
<path d="M634.433 327.936L639.079 325.258L639.426 327.308L634.781 329.986L634.433 327.936Z" fill="#42E8E0"/>
<path d="M611.155 310.559L614.379 308.691L614.726 310.741L611.502 312.593L611.155 310.559Z" fill="#42E8E0"/>
<path d="M605.12 314.048L609.369 311.601L609.7 313.635L605.467 316.098L605.12 314.048Z" fill="#42E8E0"/>
<path d="M597.085 284.701L587.578 290.19L587.231 288.14L596.737 282.651L597.085 284.701Z" fill="#42E8E0"/>
<path d="M605.765 279.675L598.887 283.66L598.54 281.61L605.417 277.642L605.765 279.675Z" fill="#42E8E0"/>
<path d="M612.213 275.955L607.567 278.634L607.219 276.6L611.865 273.905L612.213 275.955Z" fill="#42E8E0"/>
<path d="M591.579 293.018L588.355 294.869L588.024 292.819L591.232 290.967L591.579 293.018Z" fill="#42E8E0"/>
<path d="M597.614 289.512L593.381 291.976L593.034 289.926L597.266 287.462L597.614 289.512Z" fill="#42E8E0"/>
<path d="M606.261 284.519L599.416 288.471L599.069 286.421L605.913 282.469L606.261 284.519Z" fill="#42E8E0"/>
<path d="M615.536 323.439L618.743 321.587L619.09 323.637L615.883 325.489L615.536 323.439Z" fill="#42E8E0"/>
<path d="M609.485 326.944L613.734 324.48L614.081 326.531L609.832 328.994L609.485 326.944Z" fill="#42E8E0"/>
<path d="M600.854 331.937L607.682 327.986L608.03 330.019L601.185 333.987L600.854 331.937Z" fill="#42E8E0"/>
<path d="M620.43 315.85L627.258 311.899L627.605 313.949L620.76 317.9L620.43 315.85Z" fill="#42E8E0"/>
<path d="M609.237 321.951L618.462 316.627L618.793 318.677L609.584 324.001L609.237 321.951Z" fill="#42E8E0"/>
<path d="M604.558 324.662L607.434 322.992L607.782 325.043L604.905 326.712L604.558 324.662Z" fill="#42E8E0"/>
<path d="M600.061 327.258L602.937 325.588L603.285 327.638L600.408 329.308L600.061 327.258Z" fill="#42E8E0"/>
<path d="M600.672 300.838L609.782 295.58L610.129 297.63L601.02 302.888L600.672 300.838Z" fill="#42E8E0"/>
<path d="M595.993 303.549L598.87 301.879L599.217 303.93L596.341 305.599L595.993 303.549Z" fill="#42E8E0"/>
<path d="M601.301 295.349L604.508 293.48L604.855 295.531L601.648 297.382L601.301 295.349Z" fill="#42E8E0"/>
<path d="M612.642 299.085L615.85 297.234L616.197 299.284L612.99 301.135L612.642 299.085Z" fill="#42E8E0"/>
<path d="M617.222 296.44L624.927 291.992L625.274 294.043L617.569 298.49L617.222 296.44Z" fill="#42E8E0"/>
<path d="M626.282 291.199L630.879 288.554L631.226 290.604L626.63 293.249L626.282 291.199Z" fill="#42E8E0"/>
<path d="M595.249 298.837L599.498 296.374L599.846 298.424L595.596 300.887L595.249 298.837Z" fill="#42E8E0"/>
<path d="M594.853 294.026L598.077 292.174L598.407 294.224L595.2 296.076L594.853 294.026Z" fill="#42E8E0"/>
<path d="M588.818 297.531L593.05 295.068L593.398 297.118L589.165 299.565L588.818 297.531Z" fill="#42E8E0"/>
<path d="M607.98 301.78L610.857 300.11L611.204 302.16L608.327 303.83L607.98 301.78Z" fill="#42E8E0"/>
<path d="M603.483 304.376L606.36 302.706L606.707 304.756L603.83 306.426L603.483 304.376Z" fill="#42E8E0"/>
<path d="M625.638 327.87L635.475 322.182L635.822 324.232L625.985 329.92L625.638 327.87Z" fill="#42E8E0"/>
<path d="M614.61 334.235L623.835 328.911L624.183 330.962L614.957 336.285L614.61 334.235Z" fill="#42E8E0"/>
<path d="M609.931 336.947L612.824 335.277L613.155 337.327L610.278 338.997L609.931 336.947Z" fill="#42E8E0"/>
<path d="M605.434 339.542L608.327 337.872L608.658 339.923L605.781 341.592L605.434 339.542Z" fill="#42E8E0"/>
<path d="M602.987 340.964L596.754 344.568L597.101 346.602L603.318 343.014L602.987 340.964Z" fill="#42E8E0"/>
<g style="mix-blend-mode:lighten">
<path d="M354.342 472.437C351.945 472.437 349.597 471.809 347.531 470.619L211.775 392.251C210.552 391.54 209.808 390.267 209.808 388.845C209.808 387.423 210.535 386.15 211.775 385.439L296.79 336.351C297.038 336.219 297.319 336.219 297.567 336.351L439.737 418.439C440.977 419.15 441.704 420.423 441.704 421.845C441.704 423.267 440.977 424.54 439.737 425.251L361.154 470.619C359.087 471.809 356.74 472.437 354.342 472.437ZM348.308 469.279C351.961 471.396 356.74 471.379 360.393 469.279L438.976 423.912C439.72 423.482 440.167 422.705 440.167 421.845C440.167 420.986 439.72 420.209 438.976 419.779L297.187 337.922L296.922 338.071L212.569 386.762C211.825 387.191 211.379 387.969 211.379 388.828C211.379 389.688 211.825 390.465 212.569 390.895L348.324 469.263L348.308 469.279Z" fill="#42E8E0"/>
</g>
<path d="M296.988 304.641L315.902 192.445L314.381 191.801L316.663 190.494C317.109 190.213 317.738 190.23 318.432 190.627L469.58 277.89C470.82 278.601 471.762 280.436 471.547 281.725L452.484 394.813C452.385 395.409 452.087 395.789 451.691 395.971L449.459 397.26L449.078 395.177L449.211 395.21L298.989 308.476C297.749 307.765 296.806 305.93 297.021 304.641H296.988Z" fill="url(#paint27_linear_864_1246)"/>
<path d="M468.736 280.948L471.216 279.857C471.497 280.485 471.63 281.163 471.531 281.725L452.468 394.813C452.368 395.409 452.071 395.789 451.674 395.971L449.442 397.26L449.062 395.177L449.194 395.21L441.589 390.829L468.736 280.965V280.948Z" fill="url(#paint28_linear_864_1246)"/>
<path d="M296.591 309.832L447.739 397.095C448.913 397.773 449.905 397.376 450.103 396.169L469.166 283.081C469.381 281.791 468.439 279.956 467.199 279.245L316.051 191.982C314.877 191.305 313.885 191.701 313.687 192.908L294.624 305.996C294.409 307.286 295.351 309.121 296.591 309.832Z" fill="#24126A"/>
<g opacity="0.51">
<path d="M318.035 199.191L463.727 283.313L445.656 389.82L300.063 305.765L318.035 199.191Z" fill="#453C9E"/>
</g>
<path d="M201.574 363.383L209.824 367.699L292.541 319.95C293.929 319.157 296.343 319.256 297.947 320.182L440.597 402.534C441.969 401.774 448.185 398.781 448.185 398.781L445.16 406.651C445.028 406.998 444.763 407.329 444.317 407.594L357.202 457.888C355.814 458.682 353.4 458.582 351.796 457.656L205.823 373.37C205.162 372.989 204.765 372.526 204.6 372.063L201.607 363.4L201.574 363.383Z" fill="url(#paint29_linear_864_1246)"/>
<path d="M202.847 364.739L352.457 451.109C354.094 452.052 356.574 452.151 357.996 451.341L447.276 399.79C448.698 398.963 448.516 397.541 446.879 396.599L297.269 310.229C295.632 309.286 293.152 309.187 291.731 309.997L202.451 361.548C201.029 362.375 201.211 363.797 202.847 364.739Z" fill="url(#paint30_linear_864_1246)"/>
<path d="M202.847 363.863L352.457 450.233C354.094 451.175 356.574 451.275 357.996 450.465L447.276 398.914C447.739 398.649 448.02 398.302 448.136 397.955C448.367 398.632 448.086 399.31 447.276 399.79L357.996 451.341C356.574 452.167 354.094 452.052 352.457 451.109L202.847 364.739C201.74 364.111 201.326 363.251 201.591 362.507C201.756 362.987 202.169 363.483 202.847 363.879V363.863Z" fill="white"/>
<path d="M397.577 432.427V430.79C397.577 430.641 397.478 430.558 397.362 430.624L391.575 433.964C391.46 434.03 391.36 434.212 391.36 434.361V435.998C391.36 436.147 391.46 436.229 391.575 436.163L397.362 432.823C397.478 432.757 397.577 432.575 397.577 432.427Z" fill="#2842A2"/>
<path d="M388.93 437.42V435.783C388.93 435.634 388.831 435.551 388.715 435.618L382.928 438.957C382.813 439.023 382.713 439.205 382.713 439.354V440.991C382.713 441.14 382.813 441.222 382.928 441.156L388.715 437.816C388.831 437.75 388.93 437.568 388.93 437.42Z" fill="#2842A2"/>
<path d="M423.997 394.962L299.667 323.191C298.84 322.711 297.815 322.711 296.988 323.191L252.712 348.801C252.084 349.165 252.084 350.091 252.712 350.454L376.976 422.192C377.803 422.672 378.828 422.672 379.655 422.192L423.981 396.615C424.626 396.252 424.626 395.326 423.981 394.962H423.997Z" fill="#ADB1F2"/>
<path d="M423.997 396.615L423.551 396.88L299.667 325.357C298.84 324.877 297.815 324.877 296.988 325.357L253.158 350.719L252.712 350.454C252.084 350.091 252.084 349.165 252.712 348.801L296.988 323.191C297.815 322.711 298.84 322.711 299.667 323.191L423.997 394.962C424.626 395.326 424.626 396.252 423.997 396.615Z" fill="#9198DB"/>
<path d="M304.048 335.674L409.283 396.434L413.829 393.524L308.876 332.912L304.048 335.674Z" fill="#24126A"/>
<path d="M297.22 345.329L392.766 400.484L396.039 396.83L302.014 342.551L297.22 345.329Z" fill="#24126A"/>
<path d="M274.205 340.898L393.477 409.759L398.271 406.982L279.017 338.12L274.205 340.898Z" fill="#24126A"/>
<path d="M266.55 345.329L385.805 414.174L390.6 411.413L271.345 342.551L266.55 345.329Z" fill="#24126A"/>
<path d="M258.879 349.76L378.134 418.605L382.945 415.844L263.674 346.982L258.879 349.76Z" fill="#24126A"/>
<path d="M408.175 395.789L412.969 398.566L417.764 395.789L412.969 393.028L408.175 395.789Z" fill="#24126A"/>
<path d="M391.228 399.608L401.198 405.362L405.993 402.584L396.039 396.83L391.228 399.608Z" fill="#24126A"/>
<path d="M294.888 412.339L261.359 392.978C260.053 392.218 260.053 390.994 261.359 390.234L284.274 377.007C285.58 376.246 287.713 376.246 289.019 377.007L322.549 396.367C323.855 397.128 323.855 398.351 322.549 399.112L299.633 412.339C298.327 413.099 296.194 413.099 294.888 412.339Z" fill="url(#paint31_linear_864_1246)"/>
<path d="M322.549 397.475L289.019 378.115C287.713 377.354 285.58 377.354 284.274 378.115L261.359 391.341C260.962 391.573 260.697 391.854 260.532 392.151C260.185 391.49 260.449 390.746 261.359 390.217L284.274 376.99C285.58 376.23 287.713 376.23 289.019 376.99L322.549 396.351C323.458 396.88 323.722 397.624 323.375 398.285C323.226 397.988 322.962 397.707 322.549 397.475Z" fill="#9198DB"/>
<g opacity="0.11">
<path d="M297.121 310.047L446.731 396.417C448.367 397.359 450.847 397.459 452.269 396.648L541.549 345.098C542.971 344.271 542.789 342.849 541.153 341.907L391.542 255.536C389.906 254.594 387.426 254.495 386.004 255.305L296.724 306.856C295.302 307.683 295.484 309.104 297.121 310.047Z" fill="url(#paint32_linear_864_1246)"/>
<path d="M447.177 325.539L413.648 306.178C412.341 305.418 412.341 304.194 413.648 303.434L436.563 290.207C437.869 289.446 440.002 289.446 441.308 290.207L474.837 309.567C476.144 310.328 476.144 311.551 474.837 312.312L451.922 325.539C450.616 326.299 448.483 326.299 447.177 325.539Z" fill="url(#paint33_linear_864_1246)"/>
<path d="M474.837 310.675L441.308 291.315C440.002 290.554 437.869 290.554 436.563 291.315L413.648 304.541C413.251 304.773 412.986 305.054 412.821 305.351C412.474 304.69 412.738 303.946 413.648 303.417L436.563 290.19C437.869 289.43 440.002 289.43 441.308 290.19L474.837 309.551C475.747 310.08 476.011 310.824 475.664 311.485C475.515 311.188 475.251 310.907 474.837 310.675Z" fill="#9198DB"/>
<path d="M489.569 355.778L365.238 284.007C364.411 283.527 363.386 283.527 362.559 284.007L318.283 309.617C317.655 309.981 317.655 310.907 318.283 311.27L442.548 383.008C443.374 383.488 444.4 383.488 445.226 383.008L489.552 357.431C490.18 357.068 490.197 356.142 489.552 355.778H489.569Z" fill="#ADB1F2"/>
<path d="M489.569 357.431L489.122 357.696L365.238 286.173C364.411 285.693 363.386 285.693 362.559 286.173L318.73 311.535L318.283 311.27C317.655 310.907 317.655 309.981 318.283 309.617L362.559 284.007C363.386 283.527 364.411 283.527 365.238 284.007L489.569 355.778C490.197 356.142 490.197 357.068 489.569 357.431Z" fill="#9198DB"/>
<path d="M329.89 307.865L438.2 370.394L433.901 372.874L325.591 310.345L329.89 307.865Z" fill="#24126A"/>
<path d="M341.298 301.284L444.234 360.705L439.952 363.185L336.999 303.748L341.298 301.284Z" fill="#24126A"/>
<path d="M451.922 365.152L461.545 370.708L457.246 373.188L447.64 367.632L451.922 365.152Z" fill="#24126A"/>
<path d="M443.441 373.419L450.137 377.288L445.838 379.768L439.142 375.899L443.441 373.419Z" fill="#24126A"/>
<path d="M348.44 297.151L468.687 366.574L464.405 369.054L344.158 299.631L348.44 297.151Z" fill="#24126A"/>
<path d="M355.599 293.018L475.846 362.441L471.547 364.921L351.3 295.498L355.599 293.018Z" fill="#24126A"/>
<path d="M362.741 288.901L482.988 358.324L478.706 360.788L358.459 291.364L362.741 288.901Z" fill="#24126A"/>
</g>
<path d="M350.655 238.672L362.444 245.484L362.791 243.434L351.002 236.622L350.655 238.672Z" fill="#42E8E0"/>
<path d="M364.328 246.575L370.76 250.279L371.107 248.245L364.676 244.525L364.328 246.575Z" fill="#42E8E0"/>
<path d="M380.746 256.049L385.392 258.744L385.739 256.694L381.093 253.999L380.746 256.049Z" fill="#42E8E0"/>
<path d="M377.357 254.098L378.944 255.007L379.291 252.974L377.704 252.048L377.357 254.098Z" fill="#42E8E0"/>
<path d="M372.678 251.387L375.555 253.056L375.902 251.006L373.025 249.336L372.678 251.387Z" fill="#42E8E0"/>
<path d="M359.98 254.33L364.626 257.008L364.973 254.974L360.327 252.279L359.98 254.33Z" fill="#42E8E0"/>
<path d="M349.068 248.03L358.178 253.288L358.525 251.238L349.415 245.98L349.068 248.03Z" fill="#42E8E0"/>
<path d="M362.13 281.196L371.223 286.454L371.57 284.42L362.477 279.146L362.13 281.196Z" fill="#42E8E0"/>
<path d="M357.434 278.485L360.327 280.155L360.675 278.105L357.781 276.435L357.434 278.485Z" fill="#42E8E0"/>
<path d="M363.651 271.838L372.744 277.096L373.091 275.046L363.998 269.788L363.651 271.838Z" fill="#42E8E0"/>
<path d="M358.955 269.127L361.848 270.797L362.196 268.747L359.302 267.077L358.955 269.127Z" fill="#42E8E0"/>
<path d="M355.4 321.604L338.255 311.7L337.908 313.734L355.053 323.654L355.4 321.604Z" fill="#42E8E0"/>
<path d="M361.452 325.092L357.203 322.645L356.855 324.695L361.105 327.142L361.452 325.092Z" fill="#42E8E0"/>
<path d="M391.592 327.093L374.43 317.173L374.1 319.223L391.245 329.143L391.592 327.093Z" fill="#42E8E0"/>
<path d="M397.643 330.581L393.394 328.134L393.047 330.168L397.296 332.631L397.643 330.581Z" fill="#42E8E0"/>
<path d="M343.695 309.7L339.049 307.021L338.702 309.071L343.348 311.75L343.695 309.7Z" fill="#42E8E0"/>
<path d="M371.967 315.767L367.321 313.089L366.974 315.123L371.62 317.818L371.967 315.767Z" fill="#42E8E0"/>
<path d="M354.59 315.999L345.497 310.741L345.15 312.791L354.243 318.049L354.59 315.999Z" fill="#42E8E0"/>
<path d="M359.286 318.71L356.392 317.04L356.045 319.091L358.938 320.76L359.286 318.71Z" fill="#42E8E0"/>
<path d="M370.264 325.059L361.171 319.785L360.823 321.835L369.917 327.109L370.264 325.059Z" fill="#42E8E0"/>
<path d="M374.959 327.754L372.066 326.101L371.719 328.134L374.612 329.804L374.959 327.754Z" fill="#42E8E0"/>
<path d="M371.173 320.446L366.527 317.768L366.18 319.802L370.826 322.497L371.173 320.446Z" fill="#42E8E0"/>
<path d="M382.085 326.746L372.975 321.488L372.628 323.538L381.738 328.796L382.085 326.746Z" fill="#42E8E0"/>
<path d="M386.764 329.457L383.871 327.787L383.54 329.837L386.417 331.507L386.764 329.457Z" fill="#42E8E0"/>
<path d="M349.333 307.831L339.826 302.342L339.479 304.393L349.002 309.882L349.333 307.831Z" fill="#42E8E0"/>
<path d="M358.013 312.858L351.135 308.873L350.788 310.923L357.665 314.891L358.013 312.858Z" fill="#42E8E0"/>
<path d="M364.461 316.578L359.815 313.899L359.468 315.933L364.114 318.628L364.461 316.578Z" fill="#42E8E0"/>
<path d="M409.531 337.443L400.024 331.937L399.677 333.987L409.183 339.476L409.531 337.443Z" fill="#42E8E0"/>
<path d="M418.211 342.452L411.333 338.484L410.986 340.518L417.863 344.502L418.211 342.452Z" fill="#42E8E0"/>
<path d="M424.659 346.172L420.013 343.494L419.666 345.544L424.311 348.222L424.659 346.172Z" fill="#42E8E0"/>
<path d="M405.811 275.658L415.334 281.147L415.664 279.113L406.158 273.607L405.811 275.658Z" fill="#42E8E0"/>
<path d="M397.147 270.648L404.025 274.616L404.356 272.566L397.494 268.598L397.147 270.648Z" fill="#42E8E0"/>
<path d="M390.699 266.911L395.345 269.606L395.692 267.556L391.046 264.878L390.699 266.911Z" fill="#42E8E0"/>
<path d="M402.669 268.681L412.176 274.186L412.523 272.136L403 266.63L402.669 268.681Z" fill="#42E8E0"/>
<path d="M393.989 263.671L400.867 267.639L401.214 265.589L394.336 261.621L393.989 263.671Z" fill="#42E8E0"/>
<path d="M387.541 259.934L392.187 262.629L392.534 260.579L387.888 257.901L387.541 259.934Z" fill="#42E8E0"/>
<path d="M364.279 277.327L367.486 279.179L367.833 277.146L364.609 275.277L364.279 277.327Z" fill="#42E8E0"/>
<path d="M358.228 273.839L362.477 276.286L362.824 274.236L358.575 271.789L358.228 273.839Z" fill="#42E8E0"/>
<path d="M350.192 303.186L340.686 297.696L340.339 299.747L349.845 305.236L350.192 303.186Z" fill="#42E8E0"/>
<path d="M358.873 308.212L351.995 304.227L351.647 306.277L358.525 310.245L358.873 308.212Z" fill="#42E8E0"/>
<path d="M365.32 311.932L360.675 309.253L360.327 311.287L364.973 313.982L365.32 311.932Z" fill="#42E8E0"/>
<path d="M344.687 294.869L341.48 293.018L341.132 295.068L344.34 296.919L344.687 294.869Z" fill="#42E8E0"/>
<path d="M350.722 298.374L346.489 295.911L346.142 297.961L350.391 300.408L350.722 298.374Z" fill="#42E8E0"/>
<path d="M359.369 303.367L352.524 299.416L352.177 301.45L359.021 305.401L359.369 303.367Z" fill="#42E8E0"/>
<path d="M368.644 264.431L371.851 266.3L372.198 264.25L368.991 262.398L368.644 264.431Z" fill="#42E8E0"/>
<path d="M362.593 260.943L366.842 263.39L367.189 261.356L362.94 258.893L362.593 260.943Z" fill="#42E8E0"/>
<path d="M353.962 255.95L360.79 259.901L361.138 257.851L354.309 253.9L353.962 255.95Z" fill="#42E8E0"/>
<path d="M373.538 272.037L380.366 275.988L380.713 273.938L373.885 269.987L373.538 272.037Z" fill="#42E8E0"/>
<path d="M362.344 265.936L371.57 271.26L371.917 269.21L362.692 263.886L362.344 265.936Z" fill="#42E8E0"/>
<path d="M357.666 263.225L360.542 264.894L360.89 262.844L358.013 261.174L357.666 263.225Z" fill="#42E8E0"/>
<path d="M353.168 260.629L356.045 262.299L356.392 260.248L353.516 258.579L353.168 260.629Z" fill="#42E8E0"/>
<path d="M353.78 287.049L362.89 292.307L363.237 290.256L354.127 284.999L353.78 287.049Z" fill="#42E8E0"/>
<path d="M349.101 284.338L351.978 286.007L352.325 283.957L349.449 282.287L349.101 284.338Z" fill="#42E8E0"/>
<path d="M354.408 292.538L357.616 294.406L357.963 292.356L354.756 290.505L354.408 292.538Z" fill="#42E8E0"/>
<path d="M365.75 288.802L368.958 290.653L369.305 288.603L366.097 286.751L365.75 288.802Z" fill="#42E8E0"/>
<path d="M370.33 291.447L378.035 295.894L378.382 293.844L370.677 289.397L370.33 291.447Z" fill="#42E8E0"/>
<path d="M379.407 296.671L383.986 299.333L384.334 297.283L379.737 294.638L379.407 296.671Z" fill="#42E8E0"/>
<path d="M348.374 289.05L352.606 291.496L352.953 289.463L348.704 286.999L348.374 289.05Z" fill="#42E8E0"/>
<path d="M347.96 293.861L351.184 295.712L351.532 293.662L348.308 291.811L347.96 293.861Z" fill="#42E8E0"/>
<path d="M341.926 290.356L346.158 292.819L346.506 290.769L342.273 288.306L341.926 290.356Z" fill="#42E8E0"/>
<path d="M361.088 286.107L363.981 287.776L364.312 285.726L361.435 284.056L361.088 286.107Z" fill="#42E8E0"/>
<path d="M356.591 283.511L359.484 285.181L359.831 283.131L356.938 281.461L356.591 283.511Z" fill="#42E8E0"/>
<path d="M378.746 260.017L388.583 265.705L388.93 263.654L379.093 257.967L378.746 260.017Z" fill="#42E8E0"/>
<path d="M367.734 253.652L376.943 258.975L377.291 256.925L368.065 251.602L367.734 253.652Z" fill="#42E8E0"/>
<path d="M363.039 250.94L365.932 252.61L366.279 250.56L363.386 248.89L363.039 250.94Z" fill="#42E8E0"/>
<path d="M358.542 248.345L361.435 249.998L361.782 247.964L358.889 246.294L358.542 248.345Z" fill="#42E8E0"/>
<path d="M356.095 246.923L349.862 243.318L350.209 241.268L356.442 244.873L356.095 246.923Z" fill="#42E8E0"/>
<path d="M293.648 329.672L298.443 332.45L303.254 329.672L298.443 326.911L293.648 329.672Z" fill="#24126A"/>
<path d="M281.877 336.467L291.846 342.221L296.641 339.46L286.671 333.706L281.877 336.467Z" fill="#24126A"/>
<path style="mix-blend-mode:lighten" opacity="0.5" d="M603.946 148.996V-47.007H402.471V148.996L503.209 207.16L603.946 148.996Z" fill="url(#paint34_linear_864_1246)"/>
<g style="mix-blend-mode:lighten">
<path d="M503.341 525.509L420.145 477.48L503.324 429.451L586.52 477.48L503.341 525.509ZM422.509 477.48L503.341 524.154L584.172 477.48L503.341 430.806L422.509 477.48Z" fill="#8686F2"/>
</g>
<path d="M580.237 459.624V444.099L503.341 486.524L426.461 444.099V459.624L503.341 504.016L580.237 459.624Z" fill="url(#paint35_linear_864_1246)"/>
<path d="M503.341 488.491L426.461 444.099L503.341 399.707L580.237 444.099L503.341 488.491Z" fill="url(#paint36_linear_864_1246)"/>
<path opacity="0.5" d="M503.341 487.218L427.568 443.471L426.461 444.099L503.341 488.491L580.237 444.099L579.129 443.471L503.341 487.218Z" fill="white"/>
<path d="M503.341 471.545L455.807 444.099L503.341 416.67L550.874 444.099L503.341 471.545Z" fill="#0F054C"/>
<path opacity="0.5" d="M503.341 471.545L455.807 444.099L503.341 416.67L550.874 444.099L503.341 471.545Z" fill="url(#paint37_linear_864_1246)"/>
<path opacity="0.5" d="M503.341 378.263L550.874 405.709V444.099L503.341 416.67V378.263Z" fill="url(#paint38_linear_864_1246)"/>
<path opacity="0.5" d="M503.341 416.67L455.807 444.099V405.709L503.341 378.263V416.67Z" fill="url(#paint39_linear_864_1246)"/>
<path opacity="0.5" d="M503.341 433.154L455.807 405.709L503.341 378.263L550.874 405.709L503.341 433.154Z" fill="url(#paint40_linear_864_1246)"/>
<path opacity="0.5" d="M503.341 433.154V471.545L550.874 444.099V405.709L503.341 433.154Z" fill="url(#paint41_linear_864_1246)"/>
<path opacity="0.5" d="M455.807 405.709V444.099L503.341 471.545V433.154L455.807 405.709Z" fill="url(#paint42_linear_864_1246)"/>
<g style="mix-blend-mode:lighten">
<path d="M804.826 356.423L721.647 308.394L804.826 260.364L888.022 308.394L804.843 356.423H804.826ZM723.995 308.394L804.826 355.067L885.658 308.394L804.826 261.72L723.995 308.394Z" fill="#8686F2"/>
</g>
<path d="M881.723 290.538V275.013L804.826 317.437L727.946 275.013V290.538L804.826 334.93L881.723 290.538Z" fill="url(#paint43_linear_864_1246)"/>
<path d="M804.826 319.405L727.946 275.013L804.826 230.637L881.723 275.013L804.826 319.405Z" fill="url(#paint44_linear_864_1246)"/>
<path opacity="0.5" d="M804.826 318.132L729.054 274.385L727.946 275.013L804.826 319.405L881.723 275.013L880.615 274.385L804.826 318.132Z" fill="white"/>
<path d="M804.826 302.458L757.293 275.013L804.826 247.584L852.36 275.013L804.826 302.458Z" fill="#0F054C"/>
<path opacity="0.5" d="M804.826 302.458L757.293 275.013L804.826 247.584L852.36 275.013L804.826 302.458Z" fill="url(#paint45_linear_864_1246)"/>
<path opacity="0.5" d="M804.826 209.194L852.36 236.622V275.013L804.826 247.584V209.194Z" fill="url(#paint46_linear_864_1246)"/>
<path opacity="0.5" d="M804.826 247.584L757.293 275.013V236.622L804.826 209.194V247.584Z" fill="url(#paint47_linear_864_1246)"/>
<path opacity="0.5" d="M804.826 264.068L757.293 236.622L804.826 209.194L852.36 236.622L804.826 264.068Z" fill="url(#paint48_linear_864_1246)"/>
<path opacity="0.5" d="M804.826 264.068V302.458L852.36 275.013V236.622L804.826 264.068Z" fill="url(#paint49_linear_864_1246)"/>
<path opacity="0.5" d="M757.293 236.622V275.013L804.826 302.458V264.068L757.293 236.622Z" fill="url(#paint50_linear_864_1246)"/>
<g style="mix-blend-mode:lighten">
<path d="M201.574 356.423L118.379 308.394L201.558 260.364L284.754 308.394L201.574 356.423ZM120.743 308.394L201.574 355.067L282.406 308.394L201.574 261.72L120.743 308.394Z" fill="#8686F2"/>
</g>
<path d="M278.454 290.538V275.013L201.574 317.437L124.694 275.013V290.538L201.574 334.93L278.454 290.538Z" fill="url(#paint51_linear_864_1246)"/>
<path d="M201.574 319.405L124.694 275.013L201.574 230.637L278.454 275.013L201.574 319.405Z" fill="url(#paint52_linear_864_1246)"/>
<path opacity="0.5" d="M201.574 318.132L125.802 274.385L124.694 275.013L201.574 319.405L278.454 275.013L277.347 274.385L201.574 318.132Z" fill="white"/>
<path d="M201.574 302.458L154.041 275.013L201.574 247.584L249.108 275.013L201.574 302.458Z" fill="#0F054C"/>
<path opacity="0.5" d="M201.574 302.458L154.041 275.013L201.574 247.584L249.108 275.013L201.574 302.458Z" fill="url(#paint53_linear_864_1246)"/>
<path opacity="0.5" d="M201.574 209.194L249.108 236.622V275.013L201.574 247.584V209.194Z" fill="url(#paint54_linear_864_1246)"/>
<path opacity="0.5" d="M201.574 247.584L154.041 275.013V236.622L201.574 209.194V247.584Z" fill="url(#paint55_linear_864_1246)"/>
<path opacity="0.5" d="M201.574 264.068L154.041 236.622L201.574 209.194L249.108 236.622L201.574 264.068Z" fill="url(#paint56_linear_864_1246)"/>
<path opacity="0.5" d="M201.574 264.068V302.458L249.108 275.013V236.622L201.574 264.068Z" fill="url(#paint57_linear_864_1246)"/>
<path opacity="0.5" d="M154.041 236.622V275.013L201.574 302.458V264.068L154.041 236.622Z" fill="url(#paint58_linear_864_1246)"/>
</g>
<defs>
<linearGradient id="paint0_linear_864_1246" x1="426.461" y1="131.999" x2="536.027" y2="131.999" gradientUnits="userSpaceOnUse">
<stop offset="0.25" stop-color="#5761D7"/>
<stop offset="0.44" stop-color="#6B74DF"/>
<stop offset="0.82" stop-color="#A1A5F4"/>
<stop offset="1" stop-color="#BCBEFF"/>
</linearGradient>
<linearGradient id="paint1_linear_864_1246" x1="426.461" y1="102.058" x2="580.237" y2="102.058" gradientUnits="userSpaceOnUse">
<stop stop-color="#C0BFF6"/>
<stop offset="0.29" stop-color="#C4C3F6"/>
<stop offset="0.64" stop-color="#D2D2F9"/>
<stop offset="1" stop-color="#E9E9FD"/>
</linearGradient>
<linearGradient id="paint2_linear_864_1246" x1="455.807" y1="102.058" x2="550.874" y2="102.058" gradientUnits="userSpaceOnUse">
<stop stop-color="#42E8E0"/>
<stop offset="0.15" stop-color="#42E3DF"/>
<stop offset="0.33" stop-color="#44D4DE"/>
<stop offset="0.52" stop-color="#48BDDD"/>
<stop offset="0.72" stop-color="#4D9BDA"/>
<stop offset="0.93" stop-color="#5471D8"/>
<stop offset="1" stop-color="#5761D7"/>
</linearGradient>
<linearGradient id="paint3_linear_864_1246" x1="503.341" y1="69.1397" x2="1.65336" y2="69.1397" gradientUnits="userSpaceOnUse">
<stop stop-color="#42E8E0"/>
<stop offset="0.15" stop-color="#42E3DF"/>
<stop offset="0.33" stop-color="#44D4DE"/>
<stop offset="0.52" stop-color="#48BDDD"/>
<stop offset="0.72" stop-color="#4D9BDA"/>
<stop offset="0.93" stop-color="#5471D8"/>
<stop offset="1" stop-color="#5761D7"/>
</linearGradient>
<linearGradient id="paint4_linear_864_1246" x1="-8.93073e-05" y1="69.1397" x2="503.341" y2="69.1397" gradientUnits="userSpaceOnUse">
<stop stop-color="#42E8E0"/>
<stop offset="0.15" stop-color="#42E3DF"/>
<stop offset="0.33" stop-color="#44D4DE"/>
<stop offset="0.52" stop-color="#48BDDD"/>
<stop offset="0.72" stop-color="#4D9BDA"/>
<stop offset="0.93" stop-color="#5471D8"/>
<stop offset="1" stop-color="#5761D7"/>
</linearGradient>
<linearGradient id="paint5_linear_864_1246" x1="-9.27789e-05" y1="63.6507" x2="1.65324" y2="63.6507" gradientUnits="userSpaceOnUse">
<stop stop-color="#42E8E0"/>
<stop offset="0.15" stop-color="#42E3DF"/>
<stop offset="0.33" stop-color="#44D4DE"/>
<stop offset="0.52" stop-color="#48BDDD"/>
<stop offset="0.72" stop-color="#4D9BDA"/>
<stop offset="0.93" stop-color="#5471D8"/>
<stop offset="1" stop-color="#5761D7"/>
</linearGradient>
<linearGradient id="paint6_linear_864_1246" x1="503.341" y1="96.5685" x2="1.65336" y2="96.5685" gradientUnits="userSpaceOnUse">
<stop stop-color="#42E8E0"/>
<stop offset="0.15" stop-color="#42E3DF"/>
<stop offset="0.33" stop-color="#44D4DE"/>
<stop offset="0.52" stop-color="#48BDDD"/>
<stop offset="0.72" stop-color="#4D9BDA"/>
<stop offset="0.93" stop-color="#5471D8"/>
<stop offset="1" stop-color="#5761D7"/>
</linearGradient>
<linearGradient id="paint7_linear_864_1246" x1="-8.93073e-05" y1="96.5685" x2="503.341" y2="96.5685" gradientUnits="userSpaceOnUse">
<stop stop-color="#42E8E0"/>
<stop offset="0.15" stop-color="#42E3DF"/>
<stop offset="0.33" stop-color="#44D4DE"/>
<stop offset="0.52" stop-color="#48BDDD"/>
<stop offset="0.72" stop-color="#4D9BDA"/>
<stop offset="0.93" stop-color="#5471D8"/>
<stop offset="1" stop-color="#5761D7"/>
</linearGradient>
<linearGradient id="paint8_linear_864_1246" x1="201.542" y1="198.513" x2="443.854" y2="198.513" gradientUnits="userSpaceOnUse">
<stop stop-color="#5761D7"/>
<stop offset="0.18" stop-color="#5B65D8"/>
<stop offset="0.39" stop-color="#6A72DE"/>
<stop offset="0.61" stop-color="#8188E8"/>
<stop offset="0.85" stop-color="#A2A6F5"/>
<stop offset="1" stop-color="#BCBEFF"/>
</linearGradient>
<linearGradient id="paint9_linear_864_1246" x1="282.968" y1="190.428" x2="525.413" y2="190.428" gradientUnits="userSpaceOnUse">
<stop stop-color="#C0BFF6"/>
<stop offset="0.29" stop-color="#C4C3F6"/>
<stop offset="0.64" stop-color="#D2D2F9"/>
<stop offset="1" stop-color="#E9E9FD"/>
</linearGradient>
<linearGradient id="paint10_linear_864_1246" x1="267.228" y1="171.779" x2="329.294" y2="171.779" gradientUnits="userSpaceOnUse">
<stop stop-color="#C0BFF6"/>
<stop offset="0.29" stop-color="#C4C3F6"/>
<stop offset="0.64" stop-color="#D2D2F9"/>
<stop offset="1" stop-color="#E9E9FD"/>
</linearGradient>
<linearGradient id="paint11_linear_864_1246" x1="272.089" y1="160.586" x2="443.656" y2="160.586" gradientUnits="userSpaceOnUse">
<stop stop-color="#C0BFF6"/>
<stop offset="0.29" stop-color="#C4C3F6"/>
<stop offset="0.64" stop-color="#D2D2F9"/>
<stop offset="1" stop-color="#E9E9FD"/>
</linearGradient>
<linearGradient id="paint12_linear_864_1246" x1="272.089" y1="204.581" x2="301.552" y2="204.581" gradientUnits="userSpaceOnUse">
<stop stop-color="#5761D7"/>
<stop offset="0.18" stop-color="#5B65D8"/>
<stop offset="0.39" stop-color="#6A72DE"/>
<stop offset="0.61" stop-color="#8188E8"/>
<stop offset="0.85" stop-color="#A2A6F5"/>
<stop offset="1" stop-color="#BCBEFF"/>
</linearGradient>
<linearGradient id="paint13_linear_864_1246" x1="804.859" y1="-114" x2="562.53" y2="-114" gradientUnits="userSpaceOnUse">
<stop stop-color="#5761D7"/>
<stop offset="0.18" stop-color="#5B65D8"/>
<stop offset="0.39" stop-color="#6A72DE"/>
<stop offset="0.61" stop-color="#8188E8"/>
<stop offset="0.85" stop-color="#A2A6F5"/>
<stop offset="1" stop-color="#BCBEFF"/>
</linearGradient>
<linearGradient id="paint14_linear_864_1246" x1="723.433" y1="190.428" x2="480.988" y2="190.428" gradientUnits="userSpaceOnUse">
<stop stop-color="#C0BFF6"/>
<stop offset="0.29" stop-color="#C4C3F6"/>
<stop offset="0.64" stop-color="#D2D2F9"/>
<stop offset="1" stop-color="#E9E9FD"/>
</linearGradient>
<linearGradient id="paint15_linear_864_1246" x1="739.156" y1="171.779" x2="677.106" y2="171.779" gradientUnits="userSpaceOnUse">
<stop stop-color="#C0BFF6"/>
<stop offset="0.29" stop-color="#C4C3F6"/>
<stop offset="0.64" stop-color="#D2D2F9"/>
<stop offset="1" stop-color="#E9E9FD"/>
</linearGradient>
<linearGradient id="paint16_linear_864_1246" x1="734.311" y1="160.586" x2="562.745" y2="160.586" gradientUnits="userSpaceOnUse">
<stop stop-color="#C0BFF6"/>
<stop offset="0.29" stop-color="#C4C3F6"/>
<stop offset="0.64" stop-color="#D2D2F9"/>
<stop offset="1" stop-color="#E9E9FD"/>
</linearGradient>
<linearGradient id="paint17_linear_864_1246" x1="734.311" y1="204.581" x2="704.849" y2="204.581" gradientUnits="userSpaceOnUse">
<stop stop-color="#5761D7"/>
<stop offset="0.18" stop-color="#5B65D8"/>
<stop offset="0.39" stop-color="#6A72DE"/>
<stop offset="0.61" stop-color="#8188E8"/>
<stop offset="0.85" stop-color="#A2A6F5"/>
<stop offset="1" stop-color="#BCBEFF"/>
</linearGradient>
<linearGradient id="paint18_linear_864_1246" x1="572.351" y1="324.53" x2="572.351" y2="230.026" gradientUnits="userSpaceOnUse">
<stop stop-color="#C0BFF6"/>
<stop offset="0.29" stop-color="#C4C3F6"/>
<stop offset="0.64" stop-color="#D2D2F9"/>
<stop offset="1" stop-color="#E9E9FD"/>
</linearGradient>
<linearGradient id="paint19_linear_864_1246" x1="572.351" y1="246.162" x2="572.351" y2="151.658" gradientUnits="userSpaceOnUse">
<stop stop-color="#C0BFF6"/>
<stop offset="0.29" stop-color="#C4C3F6"/>
<stop offset="0.64" stop-color="#D2D2F9"/>
<stop offset="1" stop-color="#E9E9FD"/>
</linearGradient>
<linearGradient id="paint20_linear_864_1246" x1="534.837" y1="293.778" x2="709.445" y2="293.778" gradientUnits="userSpaceOnUse">
<stop stop-color="#C0BFF6"/>
<stop offset="0.29" stop-color="#C4C3F6"/>
<stop offset="0.64" stop-color="#D2D2F9"/>
<stop offset="1" stop-color="#E9E9FD"/>
</linearGradient>
<linearGradient id="paint21_linear_864_1246" x1="534.837" y1="338.55" x2="564.828" y2="338.55" gradientUnits="userSpaceOnUse">
<stop stop-color="#5761D7"/>
<stop offset="0.18" stop-color="#5B65D8"/>
<stop offset="0.39" stop-color="#6A72DE"/>
<stop offset="0.61" stop-color="#8188E8"/>
<stop offset="0.85" stop-color="#A2A6F5"/>
<stop offset="1" stop-color="#BCBEFF"/>
</linearGradient>
<linearGradient id="paint22_linear_864_1246" x1="558.231" y1="388.894" x2="804.826" y2="388.894" gradientUnits="userSpaceOnUse">
<stop stop-color="#5761D7"/>
<stop offset="0.18" stop-color="#5B65D8"/>
<stop offset="0.39" stop-color="#6A72DE"/>
<stop offset="0.61" stop-color="#8188E8"/>
<stop offset="0.85" stop-color="#A2A6F5"/>
<stop offset="1" stop-color="#BCBEFF"/>
</linearGradient>
<linearGradient id="paint23_linear_864_1246" x1="641.096" y1="380.661" x2="887.823" y2="380.661" gradientUnits="userSpaceOnUse">
<stop stop-color="#C0BFF6"/>
<stop offset="0.29" stop-color="#C4C3F6"/>
<stop offset="0.64" stop-color="#D2D2F9"/>
<stop offset="1" stop-color="#E9E9FD"/>
</linearGradient>
<linearGradient id="paint24_linear_864_1246" x1="682.876" y1="394.665" x2="746.033" y2="394.665" gradientUnits="userSpaceOnUse">
<stop stop-color="#C0BFF6"/>
<stop offset="0.29" stop-color="#C4C3F6"/>
<stop offset="0.64" stop-color="#D2D2F9"/>
<stop offset="1" stop-color="#E9E9FD"/>
</linearGradient>
<linearGradient id="paint25_linear_864_1246" x1="546.823" y1="325.985" x2="793.55" y2="325.985" gradientUnits="userSpaceOnUse">
<stop stop-color="#C0BFF6"/>
<stop offset="0.29" stop-color="#C4C3F6"/>
<stop offset="0.64" stop-color="#D2D2F9"/>
<stop offset="1" stop-color="#E9E9FD"/>
</linearGradient>
<linearGradient id="paint26_linear_864_1246" x1="530.587" y1="307.864" x2="593.745" y2="307.864" gradientUnits="userSpaceOnUse">
<stop stop-color="#C0BFF6"/>
<stop offset="0.29" stop-color="#C4C3F6"/>
<stop offset="0.64" stop-color="#D2D2F9"/>
<stop offset="1" stop-color="#E9E9FD"/>
</linearGradient>
<linearGradient id="paint27_linear_864_1246" x1="471.58" y1="293.778" x2="296.972" y2="293.778" gradientUnits="userSpaceOnUse">
<stop stop-color="#C0BFF6"/>
<stop offset="0.29" stop-color="#C4C3F6"/>
<stop offset="0.64" stop-color="#D2D2F9"/>
<stop offset="1" stop-color="#E9E9FD"/>
</linearGradient>
<linearGradient id="paint28_linear_864_1246" x1="471.58" y1="338.55" x2="441.589" y2="338.55" gradientUnits="userSpaceOnUse">
<stop stop-color="#5761D7"/>
<stop offset="0.18" stop-color="#5B65D8"/>
<stop offset="0.39" stop-color="#6A72DE"/>
<stop offset="0.61" stop-color="#8188E8"/>
<stop offset="0.85" stop-color="#A2A6F5"/>
<stop offset="1" stop-color="#BCBEFF"/>
</linearGradient>
<linearGradient id="paint29_linear_864_1246" x1="448.185" y1="388.894" x2="201.574" y2="388.894" gradientUnits="userSpaceOnUse">
<stop stop-color="#5761D7"/>
<stop offset="0.18" stop-color="#5B65D8"/>
<stop offset="0.39" stop-color="#6A72DE"/>
<stop offset="0.61" stop-color="#8188E8"/>
<stop offset="0.85" stop-color="#A2A6F5"/>
<stop offset="1" stop-color="#BCBEFF"/>
</linearGradient>
<linearGradient id="paint30_linear_864_1246" x1="365.32" y1="380.661" x2="118.593" y2="380.661" gradientUnits="userSpaceOnUse">
<stop stop-color="#C0BFF6"/>
<stop offset="0.29" stop-color="#C4C3F6"/>
<stop offset="0.64" stop-color="#D2D2F9"/>
<stop offset="1" stop-color="#E9E9FD"/>
</linearGradient>
<linearGradient id="paint31_linear_864_1246" x1="323.541" y1="394.664" x2="260.383" y2="394.664" gradientUnits="userSpaceOnUse">
<stop stop-color="#C0BFF6"/>
<stop offset="0.29" stop-color="#C4C3F6"/>
<stop offset="0.64" stop-color="#D2D2F9"/>
<stop offset="1" stop-color="#E9E9FD"/>
</linearGradient>
<linearGradient id="paint32_linear_864_1246" x1="459.594" y1="325.985" x2="212.85" y2="325.985" gradientUnits="userSpaceOnUse">
<stop stop-color="#C0BFF6"/>
<stop offset="0.29" stop-color="#C4C3F6"/>
<stop offset="0.64" stop-color="#D2D2F9"/>
<stop offset="1" stop-color="#E9E9FD"/>
</linearGradient>
<linearGradient id="paint33_linear_864_1246" x1="475.829" y1="307.864" x2="412.672" y2="307.864" gradientUnits="userSpaceOnUse">
<stop stop-color="#C0BFF6"/>
<stop offset="0.29" stop-color="#C4C3F6"/>
<stop offset="0.64" stop-color="#D2D2F9"/>
<stop offset="1" stop-color="#E9E9FD"/>
</linearGradient>
<linearGradient id="paint34_linear_864_1246" x1="503.209" y1="207.16" x2="503.209" y2="-47.007" gradientUnits="userSpaceOnUse">
<stop stop-color="#42E8E0"/>
<stop offset="0.12" stop-color="#39BDC0"/>
<stop offset="0.28" stop-color="#2E899A"/>
<stop offset="0.45" stop-color="#255E7A"/>
<stop offset="0.6" stop-color="#1E3D61"/>
<stop offset="0.75" stop-color="#192550"/>
<stop offset="0.88" stop-color="#171645"/>
<stop offset="1" stop-color="#161242"/>
</linearGradient>
<linearGradient id="paint35_linear_864_1246" x1="-0.000147916" y1="474.058" x2="1.65319" y2="474.058" gradientUnits="userSpaceOnUse">
<stop offset="0.25" stop-color="#5761D7"/>
<stop offset="0.44" stop-color="#6B74DF"/>
<stop offset="0.82" stop-color="#A1A5F4"/>
<stop offset="1" stop-color="#BCBEFF"/>
</linearGradient>
<linearGradient id="paint36_linear_864_1246" x1="-0.000147916" y1="444.099" x2="1.65319" y2="444.099" gradientUnits="userSpaceOnUse">
<stop stop-color="#C0BFF6"/>
<stop offset="0.29" stop-color="#C4C3F6"/>
<stop offset="0.64" stop-color="#D2D2F9"/>
<stop offset="1" stop-color="#E9E9FD"/>
</linearGradient>
<linearGradient id="paint37_linear_864_1246" x1="-9.27789e-05" y1="444.099" x2="1.65324" y2="444.099" gradientUnits="userSpaceOnUse">
<stop stop-color="#42E8E0"/>
<stop offset="0.15" stop-color="#42E3DF"/>
<stop offset="0.33" stop-color="#44D4DE"/>
<stop offset="0.52" stop-color="#48BDDD"/>
<stop offset="0.72" stop-color="#4D9BDA"/>
<stop offset="0.93" stop-color="#5471D8"/>
<stop offset="1" stop-color="#5761D7"/>
</linearGradient>
<linearGradient id="paint38_linear_864_1246" x1="503.341" y1="411.181" x2="1.65336" y2="411.181" gradientUnits="userSpaceOnUse">
<stop stop-color="#42E8E0"/>
<stop offset="0.15" stop-color="#42E3DF"/>
<stop offset="0.33" stop-color="#44D4DE"/>
<stop offset="0.52" stop-color="#48BDDD"/>
<stop offset="0.72" stop-color="#4D9BDA"/>
<stop offset="0.93" stop-color="#5471D8"/>
<stop offset="1" stop-color="#5761D7"/>
</linearGradient>
<linearGradient id="paint39_linear_864_1246" x1="-8.93073e-05" y1="411.181" x2="503.341" y2="411.181" gradientUnits="userSpaceOnUse">
<stop stop-color="#42E8E0"/>
<stop offset="0.15" stop-color="#42E3DF"/>
<stop offset="0.33" stop-color="#44D4DE"/>
<stop offset="0.52" stop-color="#48BDDD"/>
<stop offset="0.72" stop-color="#4D9BDA"/>
<stop offset="0.93" stop-color="#5471D8"/>
<stop offset="1" stop-color="#5761D7"/>
</linearGradient>
<linearGradient id="paint40_linear_864_1246" x1="-9.27789e-05" y1="405.709" x2="1.65324" y2="405.709" gradientUnits="userSpaceOnUse">
<stop stop-color="#42E8E0"/>
<stop offset="0.15" stop-color="#42E3DF"/>
<stop offset="0.33" stop-color="#44D4DE"/>
<stop offset="0.52" stop-color="#48BDDD"/>
<stop offset="0.72" stop-color="#4D9BDA"/>
<stop offset="0.93" stop-color="#5471D8"/>
<stop offset="1" stop-color="#5761D7"/>
</linearGradient>
<linearGradient id="paint41_linear_864_1246" x1="503.341" y1="438.627" x2="1.65336" y2="438.627" gradientUnits="userSpaceOnUse">
<stop stop-color="#42E8E0"/>
<stop offset="0.15" stop-color="#42E3DF"/>
<stop offset="0.33" stop-color="#44D4DE"/>
<stop offset="0.52" stop-color="#48BDDD"/>
<stop offset="0.72" stop-color="#4D9BDA"/>
<stop offset="0.93" stop-color="#5471D8"/>
<stop offset="1" stop-color="#5761D7"/>
</linearGradient>
<linearGradient id="paint42_linear_864_1246" x1="-8.93073e-05" y1="438.627" x2="503.341" y2="438.627" gradientUnits="userSpaceOnUse">
<stop stop-color="#42E8E0"/>
<stop offset="0.15" stop-color="#42E3DF"/>
<stop offset="0.33" stop-color="#44D4DE"/>
<stop offset="0.52" stop-color="#48BDDD"/>
<stop offset="0.72" stop-color="#4D9BDA"/>
<stop offset="0.93" stop-color="#5471D8"/>
<stop offset="1" stop-color="#5761D7"/>
</linearGradient>
<linearGradient id="paint43_linear_864_1246" x1="727.946" y1="304.971" x2="837.513" y2="304.971" gradientUnits="userSpaceOnUse">
<stop offset="0.25" stop-color="#5761D7"/>
<stop offset="0.44" stop-color="#6B74DF"/>
<stop offset="0.82" stop-color="#A1A5F4"/>
<stop offset="1" stop-color="#BCBEFF"/>
</linearGradient>
<linearGradient id="paint44_linear_864_1246" x1="727.946" y1="275.013" x2="881.723" y2="275.013" gradientUnits="userSpaceOnUse">
<stop stop-color="#C0BFF6"/>
<stop offset="0.29" stop-color="#C4C3F6"/>
<stop offset="0.64" stop-color="#D2D2F9"/>
<stop offset="1" stop-color="#E9E9FD"/>
</linearGradient>
<linearGradient id="paint45_linear_864_1246" x1="757.293" y1="275.013" x2="852.36" y2="275.013" gradientUnits="userSpaceOnUse">
<stop stop-color="#42E8E0"/>
<stop offset="0.15" stop-color="#42E3DF"/>
<stop offset="0.33" stop-color="#44D4DE"/>
<stop offset="0.52" stop-color="#48BDDD"/>
<stop offset="0.72" stop-color="#4D9BDA"/>
<stop offset="0.93" stop-color="#5471D8"/>
<stop offset="1" stop-color="#5761D7"/>
</linearGradient>
<linearGradient id="paint46_linear_864_1246" x1="804.826" y1="242.095" x2="852.36" y2="242.095" gradientUnits="userSpaceOnUse">
<stop stop-color="#42E8E0"/>
<stop offset="0.15" stop-color="#42E3DF"/>
<stop offset="0.33" stop-color="#44D4DE"/>
<stop offset="0.52" stop-color="#48BDDD"/>
<stop offset="0.72" stop-color="#4D9BDA"/>
<stop offset="0.93" stop-color="#5471D8"/>
<stop offset="1" stop-color="#5761D7"/>
</linearGradient>
<linearGradient id="paint47_linear_864_1246" x1="757.293" y1="242.095" x2="804.826" y2="242.095" gradientUnits="userSpaceOnUse">
<stop stop-color="#42E8E0"/>
<stop offset="0.15" stop-color="#42E3DF"/>
<stop offset="0.33" stop-color="#44D4DE"/>
<stop offset="0.52" stop-color="#48BDDD"/>
<stop offset="0.72" stop-color="#4D9BDA"/>
<stop offset="0.93" stop-color="#5471D8"/>
<stop offset="1" stop-color="#5761D7"/>
</linearGradient>
<linearGradient id="paint48_linear_864_1246" x1="757.293" y1="236.622" x2="852.36" y2="236.622" gradientUnits="userSpaceOnUse">
<stop stop-color="#42E8E0"/>
<stop offset="0.15" stop-color="#42E3DF"/>
<stop offset="0.33" stop-color="#44D4DE"/>
<stop offset="0.52" stop-color="#48BDDD"/>
<stop offset="0.72" stop-color="#4D9BDA"/>
<stop offset="0.93" stop-color="#5471D8"/>
<stop offset="1" stop-color="#5761D7"/>
</linearGradient>
<linearGradient id="paint49_linear_864_1246" x1="804.826" y1="269.54" x2="852.36" y2="269.54" gradientUnits="userSpaceOnUse">
<stop stop-color="#42E8E0"/>
<stop offset="0.15" stop-color="#42E3DF"/>
<stop offset="0.33" stop-color="#44D4DE"/>
<stop offset="0.52" stop-color="#48BDDD"/>
<stop offset="0.72" stop-color="#4D9BDA"/>
<stop offset="0.93" stop-color="#5471D8"/>
<stop offset="1" stop-color="#5761D7"/>
</linearGradient>
<linearGradient id="paint50_linear_864_1246" x1="757.293" y1="269.54" x2="804.826" y2="269.54" gradientUnits="userSpaceOnUse">
<stop stop-color="#42E8E0"/>
<stop offset="0.15" stop-color="#42E3DF"/>
<stop offset="0.33" stop-color="#44D4DE"/>
<stop offset="0.52" stop-color="#48BDDD"/>
<stop offset="0.72" stop-color="#4D9BDA"/>
<stop offset="0.93" stop-color="#5471D8"/>
<stop offset="1" stop-color="#5761D7"/>
</linearGradient>
<linearGradient id="paint51_linear_864_1246" x1="124.694" y1="304.971" x2="234.261" y2="304.971" gradientUnits="userSpaceOnUse">
<stop offset="0.25" stop-color="#5761D7"/>
<stop offset="0.44" stop-color="#6B74DF"/>
<stop offset="0.82" stop-color="#A1A5F4"/>
<stop offset="1" stop-color="#BCBEFF"/>
</linearGradient>
<linearGradient id="paint52_linear_864_1246" x1="124.694" y1="275.013" x2="278.454" y2="275.013" gradientUnits="userSpaceOnUse">
<stop stop-color="#C0BFF6"/>
<stop offset="0.29" stop-color="#C4C3F6"/>
<stop offset="0.64" stop-color="#D2D2F9"/>
<stop offset="1" stop-color="#E9E9FD"/>
</linearGradient>
<linearGradient id="paint53_linear_864_1246" x1="154.041" y1="275.013" x2="249.108" y2="275.013" gradientUnits="userSpaceOnUse">
<stop stop-color="#42E8E0"/>
<stop offset="0.15" stop-color="#42E3DF"/>
<stop offset="0.33" stop-color="#44D4DE"/>
<stop offset="0.52" stop-color="#48BDDD"/>
<stop offset="0.72" stop-color="#4D9BDA"/>
<stop offset="0.93" stop-color="#5471D8"/>
<stop offset="1" stop-color="#5761D7"/>
</linearGradient>
<linearGradient id="paint54_linear_864_1246" x1="201.574" y1="242.095" x2="249.108" y2="242.095" gradientUnits="userSpaceOnUse">
<stop stop-color="#42E8E0"/>
<stop offset="0.15" stop-color="#42E3DF"/>
<stop offset="0.33" stop-color="#44D4DE"/>
<stop offset="0.52" stop-color="#48BDDD"/>
<stop offset="0.72" stop-color="#4D9BDA"/>
<stop offset="0.93" stop-color="#5471D8"/>
<stop offset="1" stop-color="#5761D7"/>
</linearGradient>
<linearGradient id="paint55_linear_864_1246" x1="154.041" y1="242.095" x2="201.574" y2="242.095" gradientUnits="userSpaceOnUse">
<stop stop-color="#42E8E0"/>
<stop offset="0.15" stop-color="#42E3DF"/>
<stop offset="0.33" stop-color="#44D4DE"/>
<stop offset="0.52" stop-color="#48BDDD"/>
<stop offset="0.72" stop-color="#4D9BDA"/>
<stop offset="0.93" stop-color="#5471D8"/>
<stop offset="1" stop-color="#5761D7"/>
</linearGradient>
<linearGradient id="paint56_linear_864_1246" x1="154.041" y1="236.622" x2="249.108" y2="236.622" gradientUnits="userSpaceOnUse">
<stop stop-color="#42E8E0"/>
<stop offset="0.15" stop-color="#42E3DF"/>
<stop offset="0.33" stop-color="#44D4DE"/>
<stop offset="0.52" stop-color="#48BDDD"/>
<stop offset="0.72" stop-color="#4D9BDA"/>
<stop offset="0.93" stop-color="#5471D8"/>
<stop offset="1" stop-color="#5761D7"/>
</linearGradient>
<linearGradient id="paint57_linear_864_1246" x1="201.574" y1="269.54" x2="249.108" y2="269.54" gradientUnits="userSpaceOnUse">
<stop stop-color="#42E8E0"/>
<stop offset="0.15" stop-color="#42E3DF"/>
<stop offset="0.33" stop-color="#44D4DE"/>
<stop offset="0.52" stop-color="#48BDDD"/>
<stop offset="0.72" stop-color="#4D9BDA"/>
<stop offset="0.93" stop-color="#5471D8"/>
<stop offset="1" stop-color="#5761D7"/>
</linearGradient>
<linearGradient id="paint58_linear_864_1246" x1="154.041" y1="269.54" x2="201.574" y2="269.54" gradientUnits="userSpaceOnUse">
<stop stop-color="#42E8E0"/>
<stop offset="0.15" stop-color="#42E3DF"/>
<stop offset="0.33" stop-color="#44D4DE"/>
<stop offset="0.52" stop-color="#48BDDD"/>
<stop offset="0.72" stop-color="#4D9BDA"/>
<stop offset="0.93" stop-color="#5471D8"/>
<stop offset="1" stop-color="#5761D7"/>
</linearGradient>
<clipPath id="clip0_864_1246">
<rect width="992" height="526" fill="white"/>
</clipPath>
</defs>
</svg>
