<svg width="99" height="55" viewBox="0 0 99 55" fill="none" xmlns="http://www.w3.org/2000/svg">
<path d="M21.3555 17.5625C23.3607 17.6771 25.0078 18.4505 26.2969 19.8828C27.5859 21.2865 28.5169 22.8906 29.0898 24.6953C29.6628 26.5 29.9492 28.3477 29.9492 30.2383C29.9492 32.1289 29.6628 33.9766 29.0898 35.7812C28.5456 37.5859 27.6146 39.2044 26.2969 40.6367C25.0078 42.0404 23.3607 42.7995 21.3555 42.9141H5.54297C4.76953 42.8854 4.11068 42.6133 3.56641 42.0977C3.05078 41.5534 2.77865 40.8945 2.75 40.1211V29.4648C2.77865 28.6628 3.07943 28.0039 3.65234 27.4883C4.22526 26.944 4.91276 26.6719 5.71484 26.6719C6.48828 26.7005 7.14714 26.987 7.69141 27.5312C8.23568 28.0469 8.52214 28.6914 8.55078 29.4648V35.9961C8.55078 36.7695 8.95182 37.1562 9.75391 37.1562H19.8945C20.9831 37.099 21.8854 36.6836 22.6016 35.9102C23.3177 35.1367 23.8333 34.263 24.1484 33.2891C24.4922 32.2865 24.6641 31.2695 24.6641 30.2383C24.6641 29.207 24.4922 28.2044 24.1484 27.2305C23.8333 26.2279 23.3177 25.3398 22.6016 24.5664C21.8854 23.793 20.9831 23.3776 19.8945 23.3203H5.54297C3.82422 23.1771 2.89323 22.2461 2.75 20.5273C2.75 19.7253 3.00781 19.0378 3.52344 18.4648C4.06771 17.8919 4.74089 17.5911 5.54297 17.5625H21.3555Z" fill="#E14817"/>
<path d="M35.0078 20.4414C35.0078 19.6393 35.2799 18.9661 35.8242 18.4219C36.3971 17.849 37.0846 17.5625 37.8867 17.5625H54.4727C54.6445 17.5625 54.8164 17.5768 54.9883 17.6055H55.2461C57.2513 17.6628 58.8984 18.1211 60.1875 18.9805C61.4766 19.8398 62.4076 20.8281 62.9805 21.9453C63.5534 23.0339 63.8398 24.1367 63.8398 25.2539C63.8398 26.3997 63.5534 27.5312 62.9805 28.6484C62.4362 29.737 61.5052 30.7109 60.1875 31.5703C58.8984 32.4297 57.2513 32.888 55.2461 32.9453H43.043C42.4987 32.974 42.0404 33.1029 41.668 33.332C41.3242 33.5612 41.0664 33.862 40.8945 34.2344C40.7227 34.5781 40.6367 34.8503 40.6367 35.0508V35.9531C40.6367 36.3255 40.7227 36.612 40.8945 36.8125C41.0951 37.013 41.4674 37.099 42.0117 37.0703H60.7461C61.5482 37.0703 62.2214 37.3568 62.7656 37.9297C63.3385 38.474 63.625 39.1471 63.625 39.9492C63.625 40.7513 63.3385 41.4388 62.7656 42.0117C62.2214 42.556 61.5482 42.8281 60.7461 42.8281H39.6914C38.0872 42.8281 36.8555 42.4414 35.9961 41.668C35.1654 40.8659 34.7357 39.7344 34.707 38.2734V35.0508C34.707 33.8763 34.9792 32.7305 35.5234 31.6133C36.0964 30.4674 37.0273 29.4648 38.3164 28.6055C39.6341 27.7174 41.2956 27.2448 43.3008 27.1875H55.5039C56.0482 27.1589 56.4922 27.0443 56.8359 26.8438C57.2083 26.6146 57.4805 26.3711 57.6523 26.1133C57.8242 25.8268 57.9102 25.5404 57.9102 25.2539C57.9102 24.9674 57.8242 24.6953 57.6523 24.4375C57.4805 24.151 57.2083 23.9076 56.8359 23.707C56.4922 23.4779 56.0482 23.349 55.5039 23.3203H37.8867C37.0846 23.3203 36.4115 23.0339 35.8672 22.4609C35.2943 21.9167 35.0078 21.2435 35.0078 20.4414Z" fill="#E14817"/>
<path d="M88.3555 17.5625C90.3607 17.6771 92.0078 18.4505 93.2969 19.8828C94.5859 21.2865 95.5169 22.8906 96.0898 24.6953C96.6628 26.5 96.9492 28.3477 96.9492 30.2383C96.9492 32.1289 96.6628 33.9766 96.0898 35.7812C95.5456 37.5859 94.6146 39.2044 93.2969 40.6367C92.0078 42.0404 90.3607 42.7995 88.3555 42.9141H72.543C71.7695 42.8854 71.1107 42.6133 70.5664 42.0977C70.0508 41.5534 69.7786 40.8945 69.75 40.1211V29.4648C69.7786 28.6628 70.0794 28.0039 70.6523 27.4883C71.2253 26.944 71.9128 26.6719 72.7148 26.6719C73.4883 26.7005 74.1471 26.987 74.6914 27.5312C75.2357 28.0469 75.5221 28.6914 75.5508 29.4648V35.9961C75.5508 36.7695 75.9518 37.1562 76.7539 37.1562H86.8945C87.9831 37.099 88.8854 36.6836 89.6016 35.9102C90.3177 35.1367 90.8333 34.263 91.1484 33.2891C91.4922 32.2865 91.6641 31.2695 91.6641 30.2383C91.6641 29.207 91.4922 28.2044 91.1484 27.2305C90.8333 26.2279 90.3177 25.3398 89.6016 24.5664C88.8854 23.793 87.9831 23.3776 86.8945 23.3203H72.543C70.8242 23.1771 69.8932 22.2461 69.75 20.5273C69.75 19.7253 70.0078 19.0378 70.5234 18.4648C71.0677 17.8919 71.7409 17.5911 72.543 17.5625H88.3555Z" fill="#E14817"/>
</svg>
