<svg width="126" height="198" viewBox="0 0 126 198" fill="none" xmlns="http://www.w3.org/2000/svg">
<path d="M90.7046 96.6068C91.0428 103.062 90.4287 109.663 88.7166 116.28C82.3657 140.828 63.2256 160.805 39.5022 169.2C29.5736 172.713 19.319 174.398 8.67388 174.283C6.19711 174.258 2.36532 174.837 1.00837 172.135C0.381366 170.887 0.364013 169.431 0.359841 168.033C0.281317 141.708 0.202794 115.384 0.12427 89.0588C0.085001 75.8964 0.0457414 62.734 0.00647722 49.5716C-0.0139022 42.7433 -0.0251185 33.985 0.609986 27.5735C1.47886 18.8019 20.3329 23.9401 27.1478 25.3895C60.6016 32.5045 88.9193 62.5336 90.7046 96.6068Z" fill="#E14817"/>
<path d="M68.7919 187.116C69.4465 187.116 69.8876 187.118 70.3286 187.116C84.9467 187.036 99.5648 186.96 114.183 186.871C115.69 186.862 117.128 187.038 118.366 187.919C120.101 189.154 120.823 191.284 120.183 193.224C119.532 195.203 117.761 196.61 115.518 196.656C110.043 196.77 104.566 196.812 99.0888 196.84C83.9115 196.916 68.7347 197.06 53.5582 197.229C45.8253 197.316 38.0925 197.409 30.3597 197.504C23.967 197.583 16.1517 198.969 10.1346 196.729C7.97938 195.927 2.32816 191.033 2.71549 188.842C3.08251 186.765 9.49155 187.646 11.7989 187.52C22.4602 186.936 32.6569 187.696 43.2283 185.352C62.8616 180.998 80.7804 170.399 94.0329 155.255C103.972 143.897 110.487 130.974 113.568 116.577C120.568 83.8719 107.686 50.5885 79.9341 29.6496C68.1514 20.7596 54.8295 14.8505 40.0245 11.8821C28.1905 9.50933 17.2583 10.6188 5.34893 10.8167C2.87659 10.8578 0.654554 9.11459 0.292651 6.665C-0.295032 2.68719 4.42068 0.994706 8.11401 0.604426C40.0654 -2.77194 73.9053 8.09125 96.8744 30.8331C111.616 45.4288 120.986 62.6125 124.452 82.4307C129.401 110.73 122.451 136.408 104.06 159.309C94.8802 170.741 83.3155 179.663 69.8326 186.408C69.6 186.524 69.3692 186.644 69.1429 186.771C69.081 186.806 69.0386 186.871 68.7919 187.116V187.116Z" fill="#E14817"/>
</svg>
